# Cylinder
# Radius 0.5, height 1.0, centered at origin. Analytical SDF: max(length(p.xz) - 0.5, abs(p.y) - 0.5)
# Generated by generate-test-meshes.mjs
# Vertices: 66, Faces: 128

v 0.500000 -0.500000 0.000000
v 0.490393 -0.500000 0.097545
v 0.461940 -0.500000 0.191342
v 0.415735 -0.500000 0.277785
v 0.353553 -0.500000 0.353553
v 0.277785 -0.500000 0.415735
v 0.191342 -0.500000 0.461940
v 0.097545 -0.500000 0.490393
v 0.000000 -0.500000 0.500000
v -0.097545 -0.500000 0.490393
v -0.191342 -0.500000 0.461940
v -0.277785 -0.500000 0.415735
v -0.353553 -0.500000 0.353553
v -0.415735 -0.500000 0.277785
v -0.461940 -0.500000 0.191342
v -0.490393 -0.500000 0.097545
v -0.500000 -0.500000 0.000000
v -0.490393 -0.500000 -0.097545
v -0.461940 -0.500000 -0.191342
v -0.415735 -0.500000 -0.277785
v -0.353553 -0.500000 -0.353553
v -0.277785 -0.500000 -0.415735
v -0.191342 -0.500000 -0.461940
v -0.097545 -0.500000 -0.490393
v -0.000000 -0.500000 -0.500000
v 0.097545 -0.500000 -0.490393
v 0.191342 -0.500000 -0.461940
v 0.277785 -0.500000 -0.415735
v 0.353553 -0.500000 -0.353553
v 0.415735 -0.500000 -0.277785
v 0.461940 -0.500000 -0.191342
v 0.490393 -0.500000 -0.097545
v 0.500000 0.500000 0.000000
v 0.490393 0.500000 0.097545
v 0.461940 0.500000 0.191342
v 0.415735 0.500000 0.277785
v 0.353553 0.500000 0.353553
v 0.277785 0.500000 0.415735
v 0.191342 0.500000 0.461940
v 0.097545 0.500000 0.490393
v 0.000000 0.500000 0.500000
v -0.097545 0.500000 0.490393
v -0.191342 0.500000 0.461940
v -0.277785 0.500000 0.415735
v -0.353553 0.500000 0.353553
v -0.415735 0.500000 0.277785
v -0.461940 0.500000 0.191342
v -0.490393 0.500000 0.097545
v -0.500000 0.500000 0.000000
v -0.490393 0.500000 -0.097545
v -0.461940 0.500000 -0.191342
v -0.415735 0.500000 -0.277785
v -0.353553 0.500000 -0.353553
v -0.277785 0.500000 -0.415735
v -0.191342 0.500000 -0.461940
v -0.097545 0.500000 -0.490393
v -0.000000 0.500000 -0.500000
v 0.097545 0.500000 -0.490393
v 0.191342 0.500000 -0.461940
v 0.277785 0.500000 -0.415735
v 0.353553 0.500000 -0.353553
v 0.415735 0.500000 -0.277785
v 0.461940 0.500000 -0.191342
v 0.490393 0.500000 -0.097545
v 0.000000 0.500000 0.000000
v 0.000000 -0.500000 0.000000

f 1 33 34
f 1 34 2
f 2 34 35
f 2 35 3
f 3 35 36
f 3 36 4
f 4 36 37
f 4 37 5
f 5 37 38
f 5 38 6
f 6 38 39
f 6 39 7
f 7 39 40
f 7 40 8
f 8 40 41
f 8 41 9
f 9 41 42
f 9 42 10
f 10 42 43
f 10 43 11
f 11 43 44
f 11 44 12
f 12 44 45
f 12 45 13
f 13 45 46
f 13 46 14
f 14 46 47
f 14 47 15
f 15 47 48
f 15 48 16
f 16 48 49
f 16 49 17
f 17 49 50
f 17 50 18
f 18 50 51
f 18 51 19
f 19 51 52
f 19 52 20
f 20 52 53
f 20 53 21
f 21 53 54
f 21 54 22
f 22 54 55
f 22 55 23
f 23 55 56
f 23 56 24
f 24 56 57
f 24 57 25
f 25 57 58
f 25 58 26
f 26 58 59
f 26 59 27
f 27 59 60
f 27 60 28
f 28 60 61
f 28 61 29
f 29 61 62
f 29 62 30
f 30 62 63
f 30 63 31
f 31 63 64
f 31 64 32
f 32 64 33
f 32 33 1
f 65 33 34
f 65 34 35
f 65 35 36
f 65 36 37
f 65 37 38
f 65 38 39
f 65 39 40
f 65 40 41
f 65 41 42
f 65 42 43
f 65 43 44
f 65 44 45
f 65 45 46
f 65 46 47
f 65 47 48
f 65 48 49
f 65 49 50
f 65 50 51
f 65 51 52
f 65 52 53
f 65 53 54
f 65 54 55
f 65 55 56
f 65 56 57
f 65 57 58
f 65 58 59
f 65 59 60
f 65 60 61
f 65 61 62
f 65 62 63
f 65 63 64
f 65 64 33
f 66 2 1
f 66 3 2
f 66 4 3
f 66 5 4
f 66 6 5
f 66 7 6
f 66 8 7
f 66 9 8
f 66 10 9
f 66 11 10
f 66 12 11
f 66 13 12
f 66 14 13
f 66 15 14
f 66 16 15
f 66 17 16
f 66 18 17
f 66 19 18
f 66 20 19
f 66 21 20
f 66 22 21
f 66 23 22
f 66 24 23
f 66 25 24
f 66 26 25
f 66 27 26
f 66 28 27
f 66 29 28
f 66 30 29
f 66 31 30
f 66 32 31
f 66 1 32
