# Unit Sphere
# Radius 0.5, centered at origin. Analytical SDF: length(p) - 0.5
# Generated by generate-test-meshes.mjs
# Vertices: 825, Faces: 1472

v 0.000000 0.500000 0.000000
v 0.000000 0.500000 0.000000
v 0.000000 0.500000 0.000000
v 0.000000 0.500000 0.000000
v 0.000000 0.500000 0.000000
v 0.000000 0.500000 0.000000
v 0.000000 0.500000 0.000000
v 0.000000 0.500000 0.000000
v 0.000000 0.500000 0.000000
v 0.000000 0.500000 0.000000
v 0.000000 0.500000 0.000000
v 0.000000 0.500000 0.000000
v 0.000000 0.500000 0.000000
v 0.000000 0.500000 0.000000
v 0.000000 0.500000 0.000000
v 0.000000 0.500000 0.000000
v 0.000000 0.500000 0.000000
v 0.000000 0.500000 0.000000
v 0.000000 0.500000 0.000000
v 0.000000 0.500000 0.000000
v 0.000000 0.500000 0.000000
v 0.000000 0.500000 0.000000
v 0.000000 0.500000 0.000000
v 0.000000 0.500000 0.000000
v 0.000000 0.500000 0.000000
v 0.000000 0.500000 0.000000
v 0.000000 0.500000 0.000000
v 0.000000 0.500000 0.000000
v 0.000000 0.500000 0.000000
v 0.000000 0.500000 0.000000
v 0.000000 0.500000 0.000000
v 0.000000 0.500000 0.000000
v 0.000000 0.500000 0.000000
v 0.065263 0.495722 0.000000
v 0.064009 0.495722 0.012732
v 0.060295 0.495722 0.024975
v 0.054264 0.495722 0.036258
v 0.046148 0.495722 0.046148
v 0.036258 0.495722 0.054264
v 0.024975 0.495722 0.060295
v 0.012732 0.495722 0.064009
v 0.000000 0.495722 0.065263
v -0.012732 0.495722 0.064009
v -0.024975 0.495722 0.060295
v -0.036258 0.495722 0.054264
v -0.046148 0.495722 0.046148
v -0.054264 0.495722 0.036258
v -0.060295 0.495722 0.024975
v -0.064009 0.495722 0.012732
v -0.065263 0.495722 0.000000
v -0.064009 0.495722 -0.012732
v -0.060295 0.495722 -0.024975
v -0.054264 0.495722 -0.036258
v -0.046148 0.495722 -0.046148
v -0.036258 0.495722 -0.054264
v -0.024975 0.495722 -0.060295
v -0.012732 0.495722 -0.064009
v -0.000000 0.495722 -0.065263
v 0.012732 0.495722 -0.064009
v 0.024975 0.495722 -0.060295
v 0.036258 0.495722 -0.054264
v 0.046148 0.495722 -0.046148
v 0.054264 0.495722 -0.036258
v 0.060295 0.495722 -0.024975
v 0.064009 0.495722 -0.012732
v 0.065263 0.495722 -0.000000
v 0.129410 0.482963 0.000000
v 0.126923 0.482963 0.025247
v 0.119559 0.482963 0.049523
v 0.107600 0.482963 0.071896
v 0.091506 0.482963 0.091506
v 0.071896 0.482963 0.107600
v 0.049523 0.482963 0.119559
v 0.025247 0.482963 0.126923
v 0.000000 0.482963 0.129410
v -0.025247 0.482963 0.126923
v -0.049523 0.482963 0.119559
v -0.071896 0.482963 0.107600
v -0.091506 0.482963 0.091506
v -0.107600 0.482963 0.071896
v -0.119559 0.482963 0.049523
v -0.126923 0.482963 0.025247
v -0.129410 0.482963 0.000000
v -0.126923 0.482963 -0.025247
v -0.119559 0.482963 -0.049523
v -0.107600 0.482963 -0.071896
v -0.091506 0.482963 -0.091506
v -0.071896 0.482963 -0.107600
v -0.049523 0.482963 -0.119559
v -0.025247 0.482963 -0.126923
v -0.000000 0.482963 -0.129410
v 0.025247 0.482963 -0.126923
v 0.049523 0.482963 -0.119559
v 0.071896 0.482963 -0.107600
v 0.091506 0.482963 -0.091506
v 0.107600 0.482963 -0.071896
v 0.119559 0.482963 -0.049523
v 0.126923 0.482963 -0.025247
v 0.129410 0.482963 -0.000000
v 0.191342 0.461940 0.000000
v 0.187665 0.461940 0.037329
v 0.176777 0.461940 0.073223
v 0.159095 0.461940 0.106304
v 0.135299 0.461940 0.135299
v 0.106304 0.461940 0.159095
v 0.073223 0.461940 0.176777
v 0.037329 0.461940 0.187665
v 0.000000 0.461940 0.191342
v -0.037329 0.461940 0.187665
v -0.073223 0.461940 0.176777
v -0.106304 0.461940 0.159095
v -0.135299 0.461940 0.135299
v -0.159095 0.461940 0.106304
v -0.176777 0.461940 0.073223
v -0.187665 0.461940 0.037329
v -0.191342 0.461940 0.000000
v -0.187665 0.461940 -0.037329
v -0.176777 0.461940 -0.073223
v -0.159095 0.461940 -0.106304
v -0.135299 0.461940 -0.135299
v -0.106304 0.461940 -0.159095
v -0.073223 0.461940 -0.176777
v -0.037329 0.461940 -0.187665
v -0.000000 0.461940 -0.191342
v 0.037329 0.461940 -0.187665
v 0.073223 0.461940 -0.176777
v 0.106304 0.461940 -0.159095
v 0.135299 0.461940 -0.135299
v 0.159095 0.461940 -0.106304
v 0.176777 0.461940 -0.073223
v 0.187665 0.461940 -0.037329
v 0.191342 0.461940 -0.000000
v 0.250000 0.433013 0.000000
v 0.245196 0.433013 0.048773
v 0.230970 0.433013 0.095671
v 0.207867 0.433013 0.138893
v 0.176777 0.433013 0.176777
v 0.138893 0.433013 0.207867
v 0.095671 0.433013 0.230970
v 0.048773 0.433013 0.245196
v 0.000000 0.433013 0.250000
v -0.048773 0.433013 0.245196
v -0.095671 0.433013 0.230970
v -0.138893 0.433013 0.207867
v -0.176777 0.433013 0.176777
v -0.207867 0.433013 0.138893
v -0.230970 0.433013 0.095671
v -0.245196 0.433013 0.048773
v -0.250000 0.433013 0.000000
v -0.245196 0.433013 -0.048773
v -0.230970 0.433013 -0.095671
v -0.207867 0.433013 -0.138893
v -0.176777 0.433013 -0.176777
v -0.138893 0.433013 -0.207867
v -0.095671 0.433013 -0.230970
v -0.048773 0.433013 -0.245196
v -0.000000 0.433013 -0.250000
v 0.048773 0.433013 -0.245196
v 0.095671 0.433013 -0.230970
v 0.138893 0.433013 -0.207867
v 0.176777 0.433013 -0.176777
v 0.207867 0.433013 -0.138893
v 0.230970 0.433013 -0.095671
v 0.245196 0.433013 -0.048773
v 0.250000 0.433013 -0.000000
v 0.304381 0.396677 0.000000
v 0.298532 0.396677 0.059382
v 0.281211 0.396677 0.116481
v 0.253083 0.396677 0.169105
v 0.215230 0.396677 0.215230
v 0.169105 0.396677 0.253083
v 0.116481 0.396677 0.281211
v 0.059382 0.396677 0.298532
v 0.000000 0.396677 0.304381
v -0.059382 0.396677 0.298532
v -0.116481 0.396677 0.281211
v -0.169105 0.396677 0.253083
v -0.215230 0.396677 0.215230
v -0.253083 0.396677 0.169105
v -0.281211 0.396677 0.116481
v -0.298532 0.396677 0.059382
v -0.304381 0.396677 0.000000
v -0.298532 0.396677 -0.059382
v -0.281211 0.396677 -0.116481
v -0.253083 0.396677 -0.169105
v -0.215230 0.396677 -0.215230
v -0.169105 0.396677 -0.253083
v -0.116481 0.396677 -0.281211
v -0.059382 0.396677 -0.298532
v -0.000000 0.396677 -0.304381
v 0.059382 0.396677 -0.298532
v 0.116481 0.396677 -0.281211
v 0.169105 0.396677 -0.253083
v 0.215230 0.396677 -0.215230
v 0.253083 0.396677 -0.169105
v 0.281211 0.396677 -0.116481
v 0.298532 0.396677 -0.059382
v 0.304381 0.396677 -0.000000
v 0.353553 0.353553 0.000000
v 0.346760 0.353553 0.068975
v 0.326641 0.353553 0.135299
v 0.293969 0.353553 0.196424
v 0.250000 0.353553 0.250000
v 0.196424 0.353553 0.293969
v 0.135299 0.353553 0.326641
v 0.068975 0.353553 0.346760
v 0.000000 0.353553 0.353553
v -0.068975 0.353553 0.346760
v -0.135299 0.353553 0.326641
v -0.196424 0.353553 0.293969
v -0.250000 0.353553 0.250000
v -0.293969 0.353553 0.196424
v -0.326641 0.353553 0.135299
v -0.346760 0.353553 0.068975
v -0.353553 0.353553 0.000000
v -0.346760 0.353553 -0.068975
v -0.326641 0.353553 -0.135299
v -0.293969 0.353553 -0.196424
v -0.250000 0.353553 -0.250000
v -0.196424 0.353553 -0.293969
v -0.135299 0.353553 -0.326641
v -0.068975 0.353553 -0.346760
v -0.000000 0.353553 -0.353553
v 0.068975 0.353553 -0.346760
v 0.135299 0.353553 -0.326641
v 0.196424 0.353553 -0.293969
v 0.250000 0.353553 -0.250000
v 0.293969 0.353553 -0.196424
v 0.326641 0.353553 -0.135299
v 0.346760 0.353553 -0.068975
v 0.353553 0.353553 -0.000000
v 0.396677 0.304381 0.000000
v 0.389055 0.304381 0.077388
v 0.366481 0.304381 0.151802
v 0.329825 0.304381 0.220382
v 0.280493 0.304381 0.280493
v 0.220382 0.304381 0.329825
v 0.151802 0.304381 0.366481
v 0.077388 0.304381 0.389055
v 0.000000 0.304381 0.396677
v -0.077388 0.304381 0.389055
v -0.151802 0.304381 0.366481
v -0.220382 0.304381 0.329825
v -0.280493 0.304381 0.280493
v -0.329825 0.304381 0.220382
v -0.366481 0.304381 0.151802
v -0.389055 0.304381 0.077388
v -0.396677 0.304381 0.000000
v -0.389055 0.304381 -0.077388
v -0.366481 0.304381 -0.151802
v -0.329825 0.304381 -0.220382
v -0.280493 0.304381 -0.280493
v -0.220382 0.304381 -0.329825
v -0.151802 0.304381 -0.366481
v -0.077388 0.304381 -0.389055
v -0.000000 0.304381 -0.396677
v 0.077388 0.304381 -0.389055
v 0.151802 0.304381 -0.366481
v 0.220382 0.304381 -0.329825
v 0.280493 0.304381 -0.280493
v 0.329825 0.304381 -0.220382
v 0.366481 0.304381 -0.151802
v 0.389055 0.304381 -0.077388
v 0.396677 0.304381 -0.000000
v 0.433013 0.250000 0.000000
v 0.424692 0.250000 0.084477
v 0.400052 0.250000 0.165707
v 0.360037 0.250000 0.240569
v 0.306186 0.250000 0.306186
v 0.240569 0.250000 0.360037
v 0.165707 0.250000 0.400052
v 0.084477 0.250000 0.424692
v 0.000000 0.250000 0.433013
v -0.084477 0.250000 0.424692
v -0.165707 0.250000 0.400052
v -0.240569 0.250000 0.360037
v -0.306186 0.250000 0.306186
v -0.360037 0.250000 0.240569
v -0.400052 0.250000 0.165707
v -0.424692 0.250000 0.084477
v -0.433013 0.250000 0.000000
v -0.424692 0.250000 -0.084477
v -0.400052 0.250000 -0.165707
v -0.360037 0.250000 -0.240569
v -0.306186 0.250000 -0.306186
v -0.240569 0.250000 -0.360037
v -0.165707 0.250000 -0.400052
v -0.084477 0.250000 -0.424692
v -0.000000 0.250000 -0.433013
v 0.084477 0.250000 -0.424692
v 0.165707 0.250000 -0.400052
v 0.240569 0.250000 -0.360037
v 0.306186 0.250000 -0.306186
v 0.360037 0.250000 -0.240569
v 0.400052 0.250000 -0.165707
v 0.424692 0.250000 -0.084477
v 0.433013 0.250000 -0.000000
v 0.461940 0.191342 0.000000
v 0.453064 0.191342 0.090120
v 0.426777 0.191342 0.176777
v 0.384089 0.191342 0.256640
v 0.326641 0.191342 0.326641
v 0.256640 0.191342 0.384089
v 0.176777 0.191342 0.426777
v 0.090120 0.191342 0.453064
v 0.000000 0.191342 0.461940
v -0.090120 0.191342 0.453064
v -0.176777 0.191342 0.426777
v -0.256640 0.191342 0.384089
v -0.326641 0.191342 0.326641
v -0.384089 0.191342 0.256640
v -0.426777 0.191342 0.176777
v -0.453064 0.191342 0.090120
v -0.461940 0.191342 0.000000
v -0.453064 0.191342 -0.090120
v -0.426777 0.191342 -0.176777
v -0.384089 0.191342 -0.256640
v -0.326641 0.191342 -0.326641
v -0.256640 0.191342 -0.384089
v -0.176777 0.191342 -0.426777
v -0.090120 0.191342 -0.453064
v -0.000000 0.191342 -0.461940
v 0.090120 0.191342 -0.453064
v 0.176777 0.191342 -0.426777
v 0.256640 0.191342 -0.384089
v 0.326641 0.191342 -0.326641
v 0.384089 0.191342 -0.256640
v 0.426777 0.191342 -0.176777
v 0.453064 0.191342 -0.090120
v 0.461940 0.191342 -0.000000
v 0.482963 0.129410 0.000000
v 0.473683 0.129410 0.094221
v 0.446200 0.129410 0.184822
v 0.401569 0.129410 0.268320
v 0.341506 0.129410 0.341506
v 0.268320 0.129410 0.401569
v 0.184822 0.129410 0.446200
v 0.094221 0.129410 0.473683
v 0.000000 0.129410 0.482963
v -0.094221 0.129410 0.473683
v -0.184822 0.129410 0.446200
v -0.268320 0.129410 0.401569
v -0.341506 0.129410 0.341506
v -0.401569 0.129410 0.268320
v -0.446200 0.129410 0.184822
v -0.473683 0.129410 0.094221
v -0.482963 0.129410 0.000000
v -0.473683 0.129410 -0.094221
v -0.446200 0.129410 -0.184822
v -0.401569 0.129410 -0.268320
v -0.341506 0.129410 -0.341506
v -0.268320 0.129410 -0.401569
v -0.184822 0.129410 -0.446200
v -0.094221 0.129410 -0.473683
v -0.000000 0.129410 -0.482963
v 0.094221 0.129410 -0.473683
v 0.184822 0.129410 -0.446200
v 0.268320 0.129410 -0.401569
v 0.341506 0.129410 -0.341506
v 0.401569 0.129410 -0.268320
v 0.446200 0.129410 -0.184822
v 0.473683 0.129410 -0.094221
v 0.482963 0.129410 -0.000000
v 0.495722 0.065263 0.000000
v 0.486197 0.065263 0.096711
v 0.457988 0.065263 0.189705
v 0.412178 0.065263 0.275409
v 0.350529 0.065263 0.350529
v 0.275409 0.065263 0.412178
v 0.189705 0.065263 0.457988
v 0.096711 0.065263 0.486197
v 0.000000 0.065263 0.495722
v -0.096711 0.065263 0.486197
v -0.189705 0.065263 0.457988
v -0.275409 0.065263 0.412178
v -0.350529 0.065263 0.350529
v -0.412178 0.065263 0.275409
v -0.457988 0.065263 0.189705
v -0.486197 0.065263 0.096711
v -0.495722 0.065263 0.000000
v -0.486197 0.065263 -0.096711
v -0.457988 0.065263 -0.189705
v -0.412178 0.065263 -0.275409
v -0.350529 0.065263 -0.350529
v -0.275409 0.065263 -0.412178
v -0.189705 0.065263 -0.457988
v -0.096711 0.065263 -0.486197
v -0.000000 0.065263 -0.495722
v 0.096711 0.065263 -0.486197
v 0.189705 0.065263 -0.457988
v 0.275409 0.065263 -0.412178
v 0.350529 0.065263 -0.350529
v 0.412178 0.065263 -0.275409
v 0.457988 0.065263 -0.189705
v 0.486197 0.065263 -0.096711
v 0.495722 0.065263 -0.000000
v 0.500000 0.000000 0.000000
v 0.490393 0.000000 0.097545
v 0.461940 0.000000 0.191342
v 0.415735 0.000000 0.277785
v 0.353553 0.000000 0.353553
v 0.277785 0.000000 0.415735
v 0.191342 0.000000 0.461940
v 0.097545 0.000000 0.490393
v 0.000000 0.000000 0.500000
v -0.097545 0.000000 0.490393
v -0.191342 0.000000 0.461940
v -0.277785 0.000000 0.415735
v -0.353553 0.000000 0.353553
v -0.415735 0.000000 0.277785
v -0.461940 0.000000 0.191342
v -0.490393 0.000000 0.097545
v -0.500000 0.000000 0.000000
v -0.490393 0.000000 -0.097545
v -0.461940 0.000000 -0.191342
v -0.415735 0.000000 -0.277785
v -0.353553 0.000000 -0.353553
v -0.277785 0.000000 -0.415735
v -0.191342 0.000000 -0.461940
v -0.097545 0.000000 -0.490393
v -0.000000 0.000000 -0.500000
v 0.097545 0.000000 -0.490393
v 0.191342 0.000000 -0.461940
v 0.277785 0.000000 -0.415735
v 0.353553 0.000000 -0.353553
v 0.415735 0.000000 -0.277785
v 0.461940 0.000000 -0.191342
v 0.490393 0.000000 -0.097545
v 0.500000 0.000000 -0.000000
v 0.495722 -0.065263 0.000000
v 0.486197 -0.065263 0.096711
v 0.457988 -0.065263 0.189705
v 0.412178 -0.065263 0.275409
v 0.350529 -0.065263 0.350529
v 0.275409 -0.065263 0.412178
v 0.189705 -0.065263 0.457988
v 0.096711 -0.065263 0.486197
v 0.000000 -0.065263 0.495722
v -0.096711 -0.065263 0.486197
v -0.189705 -0.065263 0.457988
v -0.275409 -0.065263 0.412178
v -0.350529 -0.065263 0.350529
v -0.412178 -0.065263 0.275409
v -0.457988 -0.065263 0.189705
v -0.486197 -0.065263 0.096711
v -0.495722 -0.065263 0.000000
v -0.486197 -0.065263 -0.096711
v -0.457988 -0.065263 -0.189705
v -0.412178 -0.065263 -0.275409
v -0.350529 -0.065263 -0.350529
v -0.275409 -0.065263 -0.412178
v -0.189705 -0.065263 -0.457988
v -0.096711 -0.065263 -0.486197
v -0.000000 -0.065263 -0.495722
v 0.096711 -0.065263 -0.486197
v 0.189705 -0.065263 -0.457988
v 0.275409 -0.065263 -0.412178
v 0.350529 -0.065263 -0.350529
v 0.412178 -0.065263 -0.275409
v 0.457988 -0.065263 -0.189705
v 0.486197 -0.065263 -0.096711
v 0.495722 -0.065263 -0.000000
v 0.482963 -0.129410 0.000000
v 0.473683 -0.129410 0.094221
v 0.446200 -0.129410 0.184822
v 0.401569 -0.129410 0.268320
v 0.341506 -0.129410 0.341506
v 0.268320 -0.129410 0.401569
v 0.184822 -0.129410 0.446200
v 0.094221 -0.129410 0.473683
v 0.000000 -0.129410 0.482963
v -0.094221 -0.129410 0.473683
v -0.184822 -0.129410 0.446200
v -0.268320 -0.129410 0.401569
v -0.341506 -0.129410 0.341506
v -0.401569 -0.129410 0.268320
v -0.446200 -0.129410 0.184822
v -0.473683 -0.129410 0.094221
v -0.482963 -0.129410 0.000000
v -0.473683 -0.129410 -0.094221
v -0.446200 -0.129410 -0.184822
v -0.401569 -0.129410 -0.268320
v -0.341506 -0.129410 -0.341506
v -0.268320 -0.129410 -0.401569
v -0.184822 -0.129410 -0.446200
v -0.094221 -0.129410 -0.473683
v -0.000000 -0.129410 -0.482963
v 0.094221 -0.129410 -0.473683
v 0.184822 -0.129410 -0.446200
v 0.268320 -0.129410 -0.401569
v 0.341506 -0.129410 -0.341506
v 0.401569 -0.129410 -0.268320
v 0.446200 -0.129410 -0.184822
v 0.473683 -0.129410 -0.094221
v 0.482963 -0.129410 -0.000000
v 0.461940 -0.191342 0.000000
v 0.453064 -0.191342 0.090120
v 0.426777 -0.191342 0.176777
v 0.384089 -0.191342 0.256640
v 0.326641 -0.191342 0.326641
v 0.256640 -0.191342 0.384089
v 0.176777 -0.191342 0.426777
v 0.090120 -0.191342 0.453064
v 0.000000 -0.191342 0.461940
v -0.090120 -0.191342 0.453064
v -0.176777 -0.191342 0.426777
v -0.256640 -0.191342 0.384089
v -0.326641 -0.191342 0.326641
v -0.384089 -0.191342 0.256640
v -0.426777 -0.191342 0.176777
v -0.453064 -0.191342 0.090120
v -0.461940 -0.191342 0.000000
v -0.453064 -0.191342 -0.090120
v -0.426777 -0.191342 -0.176777
v -0.384089 -0.191342 -0.256640
v -0.326641 -0.191342 -0.326641
v -0.256640 -0.191342 -0.384089
v -0.176777 -0.191342 -0.426777
v -0.090120 -0.191342 -0.453064
v -0.000000 -0.191342 -0.461940
v 0.090120 -0.191342 -0.453064
v 0.176777 -0.191342 -0.426777
v 0.256640 -0.191342 -0.384089
v 0.326641 -0.191342 -0.326641
v 0.384089 -0.191342 -0.256640
v 0.426777 -0.191342 -0.176777
v 0.453064 -0.191342 -0.090120
v 0.461940 -0.191342 -0.000000
v 0.433013 -0.250000 0.000000
v 0.424692 -0.250000 0.084477
v 0.400052 -0.250000 0.165707
v 0.360037 -0.250000 0.240569
v 0.306186 -0.250000 0.306186
v 0.240569 -0.250000 0.360037
v 0.165707 -0.250000 0.400052
v 0.084477 -0.250000 0.424692
v 0.000000 -0.250000 0.433013
v -0.084477 -0.250000 0.424692
v -0.165707 -0.250000 0.400052
v -0.240569 -0.250000 0.360037
v -0.306186 -0.250000 0.306186
v -0.360037 -0.250000 0.240569
v -0.400052 -0.250000 0.165707
v -0.424692 -0.250000 0.084477
v -0.433013 -0.250000 0.000000
v -0.424692 -0.250000 -0.084477
v -0.400052 -0.250000 -0.165707
v -0.360037 -0.250000 -0.240569
v -0.306186 -0.250000 -0.306186
v -0.240569 -0.250000 -0.360037
v -0.165707 -0.250000 -0.400052
v -0.084477 -0.250000 -0.424692
v -0.000000 -0.250000 -0.433013
v 0.084477 -0.250000 -0.424692
v 0.165707 -0.250000 -0.400052
v 0.240569 -0.250000 -0.360037
v 0.306186 -0.250000 -0.306186
v 0.360037 -0.250000 -0.240569
v 0.400052 -0.250000 -0.165707
v 0.424692 -0.250000 -0.084477
v 0.433013 -0.250000 -0.000000
v 0.396677 -0.304381 0.000000
v 0.389055 -0.304381 0.077388
v 0.366481 -0.304381 0.151802
v 0.329825 -0.304381 0.220382
v 0.280493 -0.304381 0.280493
v 0.220382 -0.304381 0.329825
v 0.151802 -0.304381 0.366481
v 0.077388 -0.304381 0.389055
v 0.000000 -0.304381 0.396677
v -0.077388 -0.304381 0.389055
v -0.151802 -0.304381 0.366481
v -0.220382 -0.304381 0.329825
v -0.280493 -0.304381 0.280493
v -0.329825 -0.304381 0.220382
v -0.366481 -0.304381 0.151802
v -0.389055 -0.304381 0.077388
v -0.396677 -0.304381 0.000000
v -0.389055 -0.304381 -0.077388
v -0.366481 -0.304381 -0.151802
v -0.329825 -0.304381 -0.220382
v -0.280493 -0.304381 -0.280493
v -0.220382 -0.304381 -0.329825
v -0.151802 -0.304381 -0.366481
v -0.077388 -0.304381 -0.389055
v -0.000000 -0.304381 -0.396677
v 0.077388 -0.304381 -0.389055
v 0.151802 -0.304381 -0.366481
v 0.220382 -0.304381 -0.329825
v 0.280493 -0.304381 -0.280493
v 0.329825 -0.304381 -0.220382
v 0.366481 -0.304381 -0.151802
v 0.389055 -0.304381 -0.077388
v 0.396677 -0.304381 -0.000000
v 0.353553 -0.353553 0.000000
v 0.346760 -0.353553 0.068975
v 0.326641 -0.353553 0.135299
v 0.293969 -0.353553 0.196424
v 0.250000 -0.353553 0.250000
v 0.196424 -0.353553 0.293969
v 0.135299 -0.353553 0.326641
v 0.068975 -0.353553 0.346760
v 0.000000 -0.353553 0.353553
v -0.068975 -0.353553 0.346760
v -0.135299 -0.353553 0.326641
v -0.196424 -0.353553 0.293969
v -0.250000 -0.353553 0.250000
v -0.293969 -0.353553 0.196424
v -0.326641 -0.353553 0.135299
v -0.346760 -0.353553 0.068975
v -0.353553 -0.353553 0.000000
v -0.346760 -0.353553 -0.068975
v -0.326641 -0.353553 -0.135299
v -0.293969 -0.353553 -0.196424
v -0.250000 -0.353553 -0.250000
v -0.196424 -0.353553 -0.293969
v -0.135299 -0.353553 -0.326641
v -0.068975 -0.353553 -0.346760
v -0.000000 -0.353553 -0.353553
v 0.068975 -0.353553 -0.346760
v 0.135299 -0.353553 -0.326641
v 0.196424 -0.353553 -0.293969
v 0.250000 -0.353553 -0.250000
v 0.293969 -0.353553 -0.196424
v 0.326641 -0.353553 -0.135299
v 0.346760 -0.353553 -0.068975
v 0.353553 -0.353553 -0.000000
v 0.304381 -0.396677 0.000000
v 0.298532 -0.396677 0.059382
v 0.281211 -0.396677 0.116481
v 0.253083 -0.396677 0.169105
v 0.215230 -0.396677 0.215230
v 0.169105 -0.396677 0.253083
v 0.116481 -0.396677 0.281211
v 0.059382 -0.396677 0.298532
v 0.000000 -0.396677 0.304381
v -0.059382 -0.396677 0.298532
v -0.116481 -0.396677 0.281211
v -0.169105 -0.396677 0.253083
v -0.215230 -0.396677 0.215230
v -0.253083 -0.396677 0.169105
v -0.281211 -0.396677 0.116481
v -0.298532 -0.396677 0.059382
v -0.304381 -0.396677 0.000000
v -0.298532 -0.396677 -0.059382
v -0.281211 -0.396677 -0.116481
v -0.253083 -0.396677 -0.169105
v -0.215230 -0.396677 -0.215230
v -0.169105 -0.396677 -0.253083
v -0.116481 -0.396677 -0.281211
v -0.059382 -0.396677 -0.298532
v -0.000000 -0.396677 -0.304381
v 0.059382 -0.396677 -0.298532
v 0.116481 -0.396677 -0.281211
v 0.169105 -0.396677 -0.253083
v 0.215230 -0.396677 -0.215230
v 0.253083 -0.396677 -0.169105
v 0.281211 -0.396677 -0.116481
v 0.298532 -0.396677 -0.059382
v 0.304381 -0.396677 -0.000000
v 0.250000 -0.433013 0.000000
v 0.245196 -0.433013 0.048773
v 0.230970 -0.433013 0.095671
v 0.207867 -0.433013 0.138893
v 0.176777 -0.433013 0.176777
v 0.138893 -0.433013 0.207867
v 0.095671 -0.433013 0.230970
v 0.048773 -0.433013 0.245196
v 0.000000 -0.433013 0.250000
v -0.048773 -0.433013 0.245196
v -0.095671 -0.433013 0.230970
v -0.138893 -0.433013 0.207867
v -0.176777 -0.433013 0.176777
v -0.207867 -0.433013 0.138893
v -0.230970 -0.433013 0.095671
v -0.245196 -0.433013 0.048773
v -0.250000 -0.433013 0.000000
v -0.245196 -0.433013 -0.048773
v -0.230970 -0.433013 -0.095671
v -0.207867 -0.433013 -0.138893
v -0.176777 -0.433013 -0.176777
v -0.138893 -0.433013 -0.207867
v -0.095671 -0.433013 -0.230970
v -0.048773 -0.433013 -0.245196
v -0.000000 -0.433013 -0.250000
v 0.048773 -0.433013 -0.245196
v 0.095671 -0.433013 -0.230970
v 0.138893 -0.433013 -0.207867
v 0.176777 -0.433013 -0.176777
v 0.207867 -0.433013 -0.138893
v 0.230970 -0.433013 -0.095671
v 0.245196 -0.433013 -0.048773
v 0.250000 -0.433013 -0.000000
v 0.191342 -0.461940 0.000000
v 0.187665 -0.461940 0.037329
v 0.176777 -0.461940 0.073223
v 0.159095 -0.461940 0.106304
v 0.135299 -0.461940 0.135299
v 0.106304 -0.461940 0.159095
v 0.073223 -0.461940 0.176777
v 0.037329 -0.461940 0.187665
v 0.000000 -0.461940 0.191342
v -0.037329 -0.461940 0.187665
v -0.073223 -0.461940 0.176777
v -0.106304 -0.461940 0.159095
v -0.135299 -0.461940 0.135299
v -0.159095 -0.461940 0.106304
v -0.176777 -0.461940 0.073223
v -0.187665 -0.461940 0.037329
v -0.191342 -0.461940 0.000000
v -0.187665 -0.461940 -0.037329
v -0.176777 -0.461940 -0.073223
v -0.159095 -0.461940 -0.106304
v -0.135299 -0.461940 -0.135299
v -0.106304 -0.461940 -0.159095
v -0.073223 -0.461940 -0.176777
v -0.037329 -0.461940 -0.187665
v -0.000000 -0.461940 -0.191342
v 0.037329 -0.461940 -0.187665
v 0.073223 -0.461940 -0.176777
v 0.106304 -0.461940 -0.159095
v 0.135299 -0.461940 -0.135299
v 0.159095 -0.461940 -0.106304
v 0.176777 -0.461940 -0.073223
v 0.187665 -0.461940 -0.037329
v 0.191342 -0.461940 -0.000000
v 0.129410 -0.482963 0.000000
v 0.126923 -0.482963 0.025247
v 0.119559 -0.482963 0.049523
v 0.107600 -0.482963 0.071896
v 0.091506 -0.482963 0.091506
v 0.071896 -0.482963 0.107600
v 0.049523 -0.482963 0.119559
v 0.025247 -0.482963 0.126923
v 0.000000 -0.482963 0.129410
v -0.025247 -0.482963 0.126923
v -0.049523 -0.482963 0.119559
v -0.071896 -0.482963 0.107600
v -0.091506 -0.482963 0.091506
v -0.107600 -0.482963 0.071896
v -0.119559 -0.482963 0.049523
v -0.126923 -0.482963 0.025247
v -0.129410 -0.482963 0.000000
v -0.126923 -0.482963 -0.025247
v -0.119559 -0.482963 -0.049523
v -0.107600 -0.482963 -0.071896
v -0.091506 -0.482963 -0.091506
v -0.071896 -0.482963 -0.107600
v -0.049523 -0.482963 -0.119559
v -0.025247 -0.482963 -0.126923
v -0.000000 -0.482963 -0.129410
v 0.025247 -0.482963 -0.126923
v 0.049523 -0.482963 -0.119559
v 0.071896 -0.482963 -0.107600
v 0.091506 -0.482963 -0.091506
v 0.107600 -0.482963 -0.071896
v 0.119559 -0.482963 -0.049523
v 0.126923 -0.482963 -0.025247
v 0.129410 -0.482963 -0.000000
v 0.065263 -0.495722 0.000000
v 0.064009 -0.495722 0.012732
v 0.060295 -0.495722 0.024975
v 0.054264 -0.495722 0.036258
v 0.046148 -0.495722 0.046148
v 0.036258 -0.495722 0.054264
v 0.024975 -0.495722 0.060295
v 0.012732 -0.495722 0.064009
v 0.000000 -0.495722 0.065263
v -0.012732 -0.495722 0.064009
v -0.024975 -0.495722 0.060295
v -0.036258 -0.495722 0.054264
v -0.046148 -0.495722 0.046148
v -0.054264 -0.495722 0.036258
v -0.060295 -0.495722 0.024975
v -0.064009 -0.495722 0.012732
v -0.065263 -0.495722 0.000000
v -0.064009 -0.495722 -0.012732
v -0.060295 -0.495722 -0.024975
v -0.054264 -0.495722 -0.036258
v -0.046148 -0.495722 -0.046148
v -0.036258 -0.495722 -0.054264
v -0.024975 -0.495722 -0.060295
v -0.012732 -0.495722 -0.064009
v -0.000000 -0.495722 -0.065263
v 0.012732 -0.495722 -0.064009
v 0.024975 -0.495722 -0.060295
v 0.036258 -0.495722 -0.054264
v 0.046148 -0.495722 -0.046148
v 0.054264 -0.495722 -0.036258
v 0.060295 -0.495722 -0.024975
v 0.064009 -0.495722 -0.012732
v 0.065263 -0.495722 -0.000000
v 0.000000 -0.500000 0.000000
v 0.000000 -0.500000 0.000000
v 0.000000 -0.500000 0.000000
v 0.000000 -0.500000 0.000000
v 0.000000 -0.500000 0.000000
v 0.000000 -0.500000 0.000000
v 0.000000 -0.500000 0.000000
v 0.000000 -0.500000 0.000000
v 0.000000 -0.500000 0.000000
v -0.000000 -0.500000 0.000000
v -0.000000 -0.500000 0.000000
v -0.000000 -0.500000 0.000000
v -0.000000 -0.500000 0.000000
v -0.000000 -0.500000 0.000000
v -0.000000 -0.500000 0.000000
v -0.000000 -0.500000 0.000000
v -0.000000 -0.500000 0.000000
v -0.000000 -0.500000 -0.000000
v -0.000000 -0.500000 -0.000000
v -0.000000 -0.500000 -0.000000
v -0.000000 -0.500000 -0.000000
v -0.000000 -0.500000 -0.000000
v -0.000000 -0.500000 -0.000000
v -0.000000 -0.500000 -0.000000
v -0.000000 -0.500000 -0.000000
v 0.000000 -0.500000 -0.000000
v 0.000000 -0.500000 -0.000000
v 0.000000 -0.500000 -0.000000
v 0.000000 -0.500000 -0.000000
v 0.000000 -0.500000 -0.000000
v 0.000000 -0.500000 -0.000000
v 0.000000 -0.500000 -0.000000
v 0.000000 -0.500000 -0.000000

f 2 34 35
f 3 35 36
f 4 36 37
f 5 37 38
f 6 38 39
f 7 39 40
f 8 40 41
f 9 41 42
f 10 42 43
f 11 43 44
f 12 44 45
f 13 45 46
f 14 46 47
f 15 47 48
f 16 48 49
f 17 49 50
f 18 50 51
f 19 51 52
f 20 52 53
f 21 53 54
f 22 54 55
f 23 55 56
f 24 56 57
f 25 57 58
f 26 58 59
f 27 59 60
f 28 60 61
f 29 61 62
f 30 62 63
f 31 63 64
f 32 64 65
f 33 65 66
f 34 67 35
f 35 67 68
f 35 68 36
f 36 68 69
f 36 69 37
f 37 69 70
f 37 70 38
f 38 70 71
f 38 71 39
f 39 71 72
f 39 72 40
f 40 72 73
f 40 73 41
f 41 73 74
f 41 74 42
f 42 74 75
f 42 75 43
f 43 75 76
f 43 76 44
f 44 76 77
f 44 77 45
f 45 77 78
f 45 78 46
f 46 78 79
f 46 79 47
f 47 79 80
f 47 80 48
f 48 80 81
f 48 81 49
f 49 81 82
f 49 82 50
f 50 82 83
f 50 83 51
f 51 83 84
f 51 84 52
f 52 84 85
f 52 85 53
f 53 85 86
f 53 86 54
f 54 86 87
f 54 87 55
f 55 87 88
f 55 88 56
f 56 88 89
f 56 89 57
f 57 89 90
f 57 90 58
f 58 90 91
f 58 91 59
f 59 91 92
f 59 92 60
f 60 92 93
f 60 93 61
f 61 93 94
f 61 94 62
f 62 94 95
f 62 95 63
f 63 95 96
f 63 96 64
f 64 96 97
f 64 97 65
f 65 97 98
f 65 98 66
f 66 98 99
f 67 100 68
f 68 100 101
f 68 101 69
f 69 101 102
f 69 102 70
f 70 102 103
f 70 103 71
f 71 103 104
f 71 104 72
f 72 104 105
f 72 105 73
f 73 105 106
f 73 106 74
f 74 106 107
f 74 107 75
f 75 107 108
f 75 108 76
f 76 108 109
f 76 109 77
f 77 109 110
f 77 110 78
f 78 110 111
f 78 111 79
f 79 111 112
f 79 112 80
f 80 112 113
f 80 113 81
f 81 113 114
f 81 114 82
f 82 114 115
f 82 115 83
f 83 115 116
f 83 116 84
f 84 116 117
f 84 117 85
f 85 117 118
f 85 118 86
f 86 118 119
f 86 119 87
f 87 119 120
f 87 120 88
f 88 120 121
f 88 121 89
f 89 121 122
f 89 122 90
f 90 122 123
f 90 123 91
f 91 123 124
f 91 124 92
f 92 124 125
f 92 125 93
f 93 125 126
f 93 126 94
f 94 126 127
f 94 127 95
f 95 127 128
f 95 128 96
f 96 128 129
f 96 129 97
f 97 129 130
f 97 130 98
f 98 130 131
f 98 131 99
f 99 131 132
f 100 133 101
f 101 133 134
f 101 134 102
f 102 134 135
f 102 135 103
f 103 135 136
f 103 136 104
f 104 136 137
f 104 137 105
f 105 137 138
f 105 138 106
f 106 138 139
f 106 139 107
f 107 139 140
f 107 140 108
f 108 140 141
f 108 141 109
f 109 141 142
f 109 142 110
f 110 142 143
f 110 143 111
f 111 143 144
f 111 144 112
f 112 144 145
f 112 145 113
f 113 145 146
f 113 146 114
f 114 146 147
f 114 147 115
f 115 147 148
f 115 148 116
f 116 148 149
f 116 149 117
f 117 149 150
f 117 150 118
f 118 150 151
f 118 151 119
f 119 151 152
f 119 152 120
f 120 152 153
f 120 153 121
f 121 153 154
f 121 154 122
f 122 154 155
f 122 155 123
f 123 155 156
f 123 156 124
f 124 156 157
f 124 157 125
f 125 157 158
f 125 158 126
f 126 158 159
f 126 159 127
f 127 159 160
f 127 160 128
f 128 160 161
f 128 161 129
f 129 161 162
f 129 162 130
f 130 162 163
f 130 163 131
f 131 163 164
f 131 164 132
f 132 164 165
f 133 166 134
f 134 166 167
f 134 167 135
f 135 167 168
f 135 168 136
f 136 168 169
f 136 169 137
f 137 169 170
f 137 170 138
f 138 170 171
f 138 171 139
f 139 171 172
f 139 172 140
f 140 172 173
f 140 173 141
f 141 173 174
f 141 174 142
f 142 174 175
f 142 175 143
f 143 175 176
f 143 176 144
f 144 176 177
f 144 177 145
f 145 177 178
f 145 178 146
f 146 178 179
f 146 179 147
f 147 179 180
f 147 180 148
f 148 180 181
f 148 181 149
f 149 181 182
f 149 182 150
f 150 182 183
f 150 183 151
f 151 183 184
f 151 184 152
f 152 184 185
f 152 185 153
f 153 185 186
f 153 186 154
f 154 186 187
f 154 187 155
f 155 187 188
f 155 188 156
f 156 188 189
f 156 189 157
f 157 189 190
f 157 190 158
f 158 190 191
f 158 191 159
f 159 191 192
f 159 192 160
f 160 192 193
f 160 193 161
f 161 193 194
f 161 194 162
f 162 194 195
f 162 195 163
f 163 195 196
f 163 196 164
f 164 196 197
f 164 197 165
f 165 197 198
f 166 199 167
f 167 199 200
f 167 200 168
f 168 200 201
f 168 201 169
f 169 201 202
f 169 202 170
f 170 202 203
f 170 203 171
f 171 203 204
f 171 204 172
f 172 204 205
f 172 205 173
f 173 205 206
f 173 206 174
f 174 206 207
f 174 207 175
f 175 207 208
f 175 208 176
f 176 208 209
f 176 209 177
f 177 209 210
f 177 210 178
f 178 210 211
f 178 211 179
f 179 211 212
f 179 212 180
f 180 212 213
f 180 213 181
f 181 213 214
f 181 214 182
f 182 214 215
f 182 215 183
f 183 215 216
f 183 216 184
f 184 216 217
f 184 217 185
f 185 217 218
f 185 218 186
f 186 218 219
f 186 219 187
f 187 219 220
f 187 220 188
f 188 220 221
f 188 221 189
f 189 221 222
f 189 222 190
f 190 222 223
f 190 223 191
f 191 223 224
f 191 224 192
f 192 224 225
f 192 225 193
f 193 225 226
f 193 226 194
f 194 226 227
f 194 227 195
f 195 227 228
f 195 228 196
f 196 228 229
f 196 229 197
f 197 229 230
f 197 230 198
f 198 230 231
f 199 232 200
f 200 232 233
f 200 233 201
f 201 233 234
f 201 234 202
f 202 234 235
f 202 235 203
f 203 235 236
f 203 236 204
f 204 236 237
f 204 237 205
f 205 237 238
f 205 238 206
f 206 238 239
f 206 239 207
f 207 239 240
f 207 240 208
f 208 240 241
f 208 241 209
f 209 241 242
f 209 242 210
f 210 242 243
f 210 243 211
f 211 243 244
f 211 244 212
f 212 244 245
f 212 245 213
f 213 245 246
f 213 246 214
f 214 246 247
f 214 247 215
f 215 247 248
f 215 248 216
f 216 248 249
f 216 249 217
f 217 249 250
f 217 250 218
f 218 250 251
f 218 251 219
f 219 251 252
f 219 252 220
f 220 252 253
f 220 253 221
f 221 253 254
f 221 254 222
f 222 254 255
f 222 255 223
f 223 255 256
f 223 256 224
f 224 256 257
f 224 257 225
f 225 257 258
f 225 258 226
f 226 258 259
f 226 259 227
f 227 259 260
f 227 260 228
f 228 260 261
f 228 261 229
f 229 261 262
f 229 262 230
f 230 262 263
f 230 263 231
f 231 263 264
f 232 265 233
f 233 265 266
f 233 266 234
f 234 266 267
f 234 267 235
f 235 267 268
f 235 268 236
f 236 268 269
f 236 269 237
f 237 269 270
f 237 270 238
f 238 270 271
f 238 271 239
f 239 271 272
f 239 272 240
f 240 272 273
f 240 273 241
f 241 273 274
f 241 274 242
f 242 274 275
f 242 275 243
f 243 275 276
f 243 276 244
f 244 276 277
f 244 277 245
f 245 277 278
f 245 278 246
f 246 278 279
f 246 279 247
f 247 279 280
f 247 280 248
f 248 280 281
f 248 281 249
f 249 281 282
f 249 282 250
f 250 282 283
f 250 283 251
f 251 283 284
f 251 284 252
f 252 284 285
f 252 285 253
f 253 285 286
f 253 286 254
f 254 286 287
f 254 287 255
f 255 287 288
f 255 288 256
f 256 288 289
f 256 289 257
f 257 289 290
f 257 290 258
f 258 290 291
f 258 291 259
f 259 291 292
f 259 292 260
f 260 292 293
f 260 293 261
f 261 293 294
f 261 294 262
f 262 294 295
f 262 295 263
f 263 295 296
f 263 296 264
f 264 296 297
f 265 298 266
f 266 298 299
f 266 299 267
f 267 299 300
f 267 300 268
f 268 300 301
f 268 301 269
f 269 301 302
f 269 302 270
f 270 302 303
f 270 303 271
f 271 303 304
f 271 304 272
f 272 304 305
f 272 305 273
f 273 305 306
f 273 306 274
f 274 306 307
f 274 307 275
f 275 307 308
f 275 308 276
f 276 308 309
f 276 309 277
f 277 309 310
f 277 310 278
f 278 310 311
f 278 311 279
f 279 311 312
f 279 312 280
f 280 312 313
f 280 313 281
f 281 313 314
f 281 314 282
f 282 314 315
f 282 315 283
f 283 315 316
f 283 316 284
f 284 316 317
f 284 317 285
f 285 317 318
f 285 318 286
f 286 318 319
f 286 319 287
f 287 319 320
f 287 320 288
f 288 320 321
f 288 321 289
f 289 321 322
f 289 322 290
f 290 322 323
f 290 323 291
f 291 323 324
f 291 324 292
f 292 324 325
f 292 325 293
f 293 325 326
f 293 326 294
f 294 326 327
f 294 327 295
f 295 327 328
f 295 328 296
f 296 328 329
f 296 329 297
f 297 329 330
f 298 331 299
f 299 331 332
f 299 332 300
f 300 332 333
f 300 333 301
f 301 333 334
f 301 334 302
f 302 334 335
f 302 335 303
f 303 335 336
f 303 336 304
f 304 336 337
f 304 337 305
f 305 337 338
f 305 338 306
f 306 338 339
f 306 339 307
f 307 339 340
f 307 340 308
f 308 340 341
f 308 341 309
f 309 341 342
f 309 342 310
f 310 342 343
f 310 343 311
f 311 343 344
f 311 344 312
f 312 344 345
f 312 345 313
f 313 345 346
f 313 346 314
f 314 346 347
f 314 347 315
f 315 347 348
f 315 348 316
f 316 348 349
f 316 349 317
f 317 349 350
f 317 350 318
f 318 350 351
f 318 351 319
f 319 351 352
f 319 352 320
f 320 352 353
f 320 353 321
f 321 353 354
f 321 354 322
f 322 354 355
f 322 355 323
f 323 355 356
f 323 356 324
f 324 356 357
f 324 357 325
f 325 357 358
f 325 358 326
f 326 358 359
f 326 359 327
f 327 359 360
f 327 360 328
f 328 360 361
f 328 361 329
f 329 361 362
f 329 362 330
f 330 362 363
f 331 364 332
f 332 364 365
f 332 365 333
f 333 365 366
f 333 366 334
f 334 366 367
f 334 367 335
f 335 367 368
f 335 368 336
f 336 368 369
f 336 369 337
f 337 369 370
f 337 370 338
f 338 370 371
f 338 371 339
f 339 371 372
f 339 372 340
f 340 372 373
f 340 373 341
f 341 373 374
f 341 374 342
f 342 374 375
f 342 375 343
f 343 375 376
f 343 376 344
f 344 376 377
f 344 377 345
f 345 377 378
f 345 378 346
f 346 378 379
f 346 379 347
f 347 379 380
f 347 380 348
f 348 380 381
f 348 381 349
f 349 381 382
f 349 382 350
f 350 382 383
f 350 383 351
f 351 383 384
f 351 384 352
f 352 384 385
f 352 385 353
f 353 385 386
f 353 386 354
f 354 386 387
f 354 387 355
f 355 387 388
f 355 388 356
f 356 388 389
f 356 389 357
f 357 389 390
f 357 390 358
f 358 390 391
f 358 391 359
f 359 391 392
f 359 392 360
f 360 392 393
f 360 393 361
f 361 393 394
f 361 394 362
f 362 394 395
f 362 395 363
f 363 395 396
f 364 397 365
f 365 397 398
f 365 398 366
f 366 398 399
f 366 399 367
f 367 399 400
f 367 400 368
f 368 400 401
f 368 401 369
f 369 401 402
f 369 402 370
f 370 402 403
f 370 403 371
f 371 403 404
f 371 404 372
f 372 404 405
f 372 405 373
f 373 405 406
f 373 406 374
f 374 406 407
f 374 407 375
f 375 407 408
f 375 408 376
f 376 408 409
f 376 409 377
f 377 409 410
f 377 410 378
f 378 410 411
f 378 411 379
f 379 411 412
f 379 412 380
f 380 412 413
f 380 413 381
f 381 413 414
f 381 414 382
f 382 414 415
f 382 415 383
f 383 415 416
f 383 416 384
f 384 416 417
f 384 417 385
f 385 417 418
f 385 418 386
f 386 418 419
f 386 419 387
f 387 419 420
f 387 420 388
f 388 420 421
f 388 421 389
f 389 421 422
f 389 422 390
f 390 422 423
f 390 423 391
f 391 423 424
f 391 424 392
f 392 424 425
f 392 425 393
f 393 425 426
f 393 426 394
f 394 426 427
f 394 427 395
f 395 427 428
f 395 428 396
f 396 428 429
f 397 430 398
f 398 430 431
f 398 431 399
f 399 431 432
f 399 432 400
f 400 432 433
f 400 433 401
f 401 433 434
f 401 434 402
f 402 434 435
f 402 435 403
f 403 435 436
f 403 436 404
f 404 436 437
f 404 437 405
f 405 437 438
f 405 438 406
f 406 438 439
f 406 439 407
f 407 439 440
f 407 440 408
f 408 440 441
f 408 441 409
f 409 441 442
f 409 442 410
f 410 442 443
f 410 443 411
f 411 443 444
f 411 444 412
f 412 444 445
f 412 445 413
f 413 445 446
f 413 446 414
f 414 446 447
f 414 447 415
f 415 447 448
f 415 448 416
f 416 448 449
f 416 449 417
f 417 449 450
f 417 450 418
f 418 450 451
f 418 451 419
f 419 451 452
f 419 452 420
f 420 452 453
f 420 453 421
f 421 453 454
f 421 454 422
f 422 454 455
f 422 455 423
f 423 455 456
f 423 456 424
f 424 456 457
f 424 457 425
f 425 457 458
f 425 458 426
f 426 458 459
f 426 459 427
f 427 459 460
f 427 460 428
f 428 460 461
f 428 461 429
f 429 461 462
f 430 463 431
f 431 463 464
f 431 464 432
f 432 464 465
f 432 465 433
f 433 465 466
f 433 466 434
f 434 466 467
f 434 467 435
f 435 467 468
f 435 468 436
f 436 468 469
f 436 469 437
f 437 469 470
f 437 470 438
f 438 470 471
f 438 471 439
f 439 471 472
f 439 472 440
f 440 472 473
f 440 473 441
f 441 473 474
f 441 474 442
f 442 474 475
f 442 475 443
f 443 475 476
f 443 476 444
f 444 476 477
f 444 477 445
f 445 477 478
f 445 478 446
f 446 478 479
f 446 479 447
f 447 479 480
f 447 480 448
f 448 480 481
f 448 481 449
f 449 481 482
f 449 482 450
f 450 482 483
f 450 483 451
f 451 483 484
f 451 484 452
f 452 484 485
f 452 485 453
f 453 485 486
f 453 486 454
f 454 486 487
f 454 487 455
f 455 487 488
f 455 488 456
f 456 488 489
f 456 489 457
f 457 489 490
f 457 490 458
f 458 490 491
f 458 491 459
f 459 491 492
f 459 492 460
f 460 492 493
f 460 493 461
f 461 493 494
f 461 494 462
f 462 494 495
f 463 496 464
f 464 496 497
f 464 497 465
f 465 497 498
f 465 498 466
f 466 498 499
f 466 499 467
f 467 499 500
f 467 500 468
f 468 500 501
f 468 501 469
f 469 501 502
f 469 502 470
f 470 502 503
f 470 503 471
f 471 503 504
f 471 504 472
f 472 504 505
f 472 505 473
f 473 505 506
f 473 506 474
f 474 506 507
f 474 507 475
f 475 507 508
f 475 508 476
f 476 508 509
f 476 509 477
f 477 509 510
f 477 510 478
f 478 510 511
f 478 511 479
f 479 511 512
f 479 512 480
f 480 512 513
f 480 513 481
f 481 513 514
f 481 514 482
f 482 514 515
f 482 515 483
f 483 515 516
f 483 516 484
f 484 516 517
f 484 517 485
f 485 517 518
f 485 518 486
f 486 518 519
f 486 519 487
f 487 519 520
f 487 520 488
f 488 520 521
f 488 521 489
f 489 521 522
f 489 522 490
f 490 522 523
f 490 523 491
f 491 523 524
f 491 524 492
f 492 524 525
f 492 525 493
f 493 525 526
f 493 526 494
f 494 526 527
f 494 527 495
f 495 527 528
f 496 529 497
f 497 529 530
f 497 530 498
f 498 530 531
f 498 531 499
f 499 531 532
f 499 532 500
f 500 532 533
f 500 533 501
f 501 533 534
f 501 534 502
f 502 534 535
f 502 535 503
f 503 535 536
f 503 536 504
f 504 536 537
f 504 537 505
f 505 537 538
f 505 538 506
f 506 538 539
f 506 539 507
f 507 539 540
f 507 540 508
f 508 540 541
f 508 541 509
f 509 541 542
f 509 542 510
f 510 542 543
f 510 543 511
f 511 543 544
f 511 544 512
f 512 544 545
f 512 545 513
f 513 545 546
f 513 546 514
f 514 546 547
f 514 547 515
f 515 547 548
f 515 548 516
f 516 548 549
f 516 549 517
f 517 549 550
f 517 550 518
f 518 550 551
f 518 551 519
f 519 551 552
f 519 552 520
f 520 552 553
f 520 553 521
f 521 553 554
f 521 554 522
f 522 554 555
f 522 555 523
f 523 555 556
f 523 556 524
f 524 556 557
f 524 557 525
f 525 557 558
f 525 558 526
f 526 558 559
f 526 559 527
f 527 559 560
f 527 560 528
f 528 560 561
f 529 562 530
f 530 562 563
f 530 563 531
f 531 563 564
f 531 564 532
f 532 564 565
f 532 565 533
f 533 565 566
f 533 566 534
f 534 566 567
f 534 567 535
f 535 567 568
f 535 568 536
f 536 568 569
f 536 569 537
f 537 569 570
f 537 570 538
f 538 570 571
f 538 571 539
f 539 571 572
f 539 572 540
f 540 572 573
f 540 573 541
f 541 573 574
f 541 574 542
f 542 574 575
f 542 575 543
f 543 575 576
f 543 576 544
f 544 576 577
f 544 577 545
f 545 577 578
f 545 578 546
f 546 578 579
f 546 579 547
f 547 579 580
f 547 580 548
f 548 580 581
f 548 581 549
f 549 581 582
f 549 582 550
f 550 582 583
f 550 583 551
f 551 583 584
f 551 584 552
f 552 584 585
f 552 585 553
f 553 585 586
f 553 586 554
f 554 586 587
f 554 587 555
f 555 587 588
f 555 588 556
f 556 588 589
f 556 589 557
f 557 589 590
f 557 590 558
f 558 590 591
f 558 591 559
f 559 591 592
f 559 592 560
f 560 592 593
f 560 593 561
f 561 593 594
f 562 595 563
f 563 595 596
f 563 596 564
f 564 596 597
f 564 597 565
f 565 597 598
f 565 598 566
f 566 598 599
f 566 599 567
f 567 599 600
f 567 600 568
f 568 600 601
f 568 601 569
f 569 601 602
f 569 602 570
f 570 602 603
f 570 603 571
f 571 603 604
f 571 604 572
f 572 604 605
f 572 605 573
f 573 605 606
f 573 606 574
f 574 606 607
f 574 607 575
f 575 607 608
f 575 608 576
f 576 608 609
f 576 609 577
f 577 609 610
f 577 610 578
f 578 610 611
f 578 611 579
f 579 611 612
f 579 612 580
f 580 612 613
f 580 613 581
f 581 613 614
f 581 614 582
f 582 614 615
f 582 615 583
f 583 615 616
f 583 616 584
f 584 616 617
f 584 617 585
f 585 617 618
f 585 618 586
f 586 618 619
f 586 619 587
f 587 619 620
f 587 620 588
f 588 620 621
f 588 621 589
f 589 621 622
f 589 622 590
f 590 622 623
f 590 623 591
f 591 623 624
f 591 624 592
f 592 624 625
f 592 625 593
f 593 625 626
f 593 626 594
f 594 626 627
f 595 628 596
f 596 628 629
f 596 629 597
f 597 629 630
f 597 630 598
f 598 630 631
f 598 631 599
f 599 631 632
f 599 632 600
f 600 632 633
f 600 633 601
f 601 633 634
f 601 634 602
f 602 634 635
f 602 635 603
f 603 635 636
f 603 636 604
f 604 636 637
f 604 637 605
f 605 637 638
f 605 638 606
f 606 638 639
f 606 639 607
f 607 639 640
f 607 640 608
f 608 640 641
f 608 641 609
f 609 641 642
f 609 642 610
f 610 642 643
f 610 643 611
f 611 643 644
f 611 644 612
f 612 644 645
f 612 645 613
f 613 645 646
f 613 646 614
f 614 646 647
f 614 647 615
f 615 647 648
f 615 648 616
f 616 648 649
f 616 649 617
f 617 649 650
f 617 650 618
f 618 650 651
f 618 651 619
f 619 651 652
f 619 652 620
f 620 652 653
f 620 653 621
f 621 653 654
f 621 654 622
f 622 654 655
f 622 655 623
f 623 655 656
f 623 656 624
f 624 656 657
f 624 657 625
f 625 657 658
f 625 658 626
f 626 658 659
f 626 659 627
f 627 659 660
f 628 661 629
f 629 661 662
f 629 662 630
f 630 662 663
f 630 663 631
f 631 663 664
f 631 664 632
f 632 664 665
f 632 665 633
f 633 665 666
f 633 666 634
f 634 666 667
f 634 667 635
f 635 667 668
f 635 668 636
f 636 668 669
f 636 669 637
f 637 669 670
f 637 670 638
f 638 670 671
f 638 671 639
f 639 671 672
f 639 672 640
f 640 672 673
f 640 673 641
f 641 673 674
f 641 674 642
f 642 674 675
f 642 675 643
f 643 675 676
f 643 676 644
f 644 676 677
f 644 677 645
f 645 677 678
f 645 678 646
f 646 678 679
f 646 679 647
f 647 679 680
f 647 680 648
f 648 680 681
f 648 681 649
f 649 681 682
f 649 682 650
f 650 682 683
f 650 683 651
f 651 683 684
f 651 684 652
f 652 684 685
f 652 685 653
f 653 685 686
f 653 686 654
f 654 686 687
f 654 687 655
f 655 687 688
f 655 688 656
f 656 688 689
f 656 689 657
f 657 689 690
f 657 690 658
f 658 690 691
f 658 691 659
f 659 691 692
f 659 692 660
f 660 692 693
f 661 694 662
f 662 694 695
f 662 695 663
f 663 695 696
f 663 696 664
f 664 696 697
f 664 697 665
f 665 697 698
f 665 698 666
f 666 698 699
f 666 699 667
f 667 699 700
f 667 700 668
f 668 700 701
f 668 701 669
f 669 701 702
f 669 702 670
f 670 702 703
f 670 703 671
f 671 703 704
f 671 704 672
f 672 704 705
f 672 705 673
f 673 705 706
f 673 706 674
f 674 706 707
f 674 707 675
f 675 707 708
f 675 708 676
f 676 708 709
f 676 709 677
f 677 709 710
f 677 710 678
f 678 710 711
f 678 711 679
f 679 711 712
f 679 712 680
f 680 712 713
f 680 713 681
f 681 713 714
f 681 714 682
f 682 714 715
f 682 715 683
f 683 715 716
f 683 716 684
f 684 716 717
f 684 717 685
f 685 717 718
f 685 718 686
f 686 718 719
f 686 719 687
f 687 719 720
f 687 720 688
f 688 720 721
f 688 721 689
f 689 721 722
f 689 722 690
f 690 722 723
f 690 723 691
f 691 723 724
f 691 724 692
f 692 724 725
f 692 725 693
f 693 725 726
f 694 727 695
f 695 727 728
f 695 728 696
f 696 728 729
f 696 729 697
f 697 729 730
f 697 730 698
f 698 730 731
f 698 731 699
f 699 731 732
f 699 732 700
f 700 732 733
f 700 733 701
f 701 733 734
f 701 734 702
f 702 734 735
f 702 735 703
f 703 735 736
f 703 736 704
f 704 736 737
f 704 737 705
f 705 737 738
f 705 738 706
f 706 738 739
f 706 739 707
f 707 739 740
f 707 740 708
f 708 740 741
f 708 741 709
f 709 741 742
f 709 742 710
f 710 742 743
f 710 743 711
f 711 743 744
f 711 744 712
f 712 744 745
f 712 745 713
f 713 745 746
f 713 746 714
f 714 746 747
f 714 747 715
f 715 747 748
f 715 748 716
f 716 748 749
f 716 749 717
f 717 749 750
f 717 750 718
f 718 750 751
f 718 751 719
f 719 751 752
f 719 752 720
f 720 752 753
f 720 753 721
f 721 753 754
f 721 754 722
f 722 754 755
f 722 755 723
f 723 755 756
f 723 756 724
f 724 756 757
f 724 757 725
f 725 757 758
f 725 758 726
f 726 758 759
f 727 760 728
f 728 760 761
f 728 761 729
f 729 761 762
f 729 762 730
f 730 762 763
f 730 763 731
f 731 763 764
f 731 764 732
f 732 764 765
f 732 765 733
f 733 765 766
f 733 766 734
f 734 766 767
f 734 767 735
f 735 767 768
f 735 768 736
f 736 768 769
f 736 769 737
f 737 769 770
f 737 770 738
f 738 770 771
f 738 771 739
f 739 771 772
f 739 772 740
f 740 772 773
f 740 773 741
f 741 773 774
f 741 774 742
f 742 774 775
f 742 775 743
f 743 775 776
f 743 776 744
f 744 776 777
f 744 777 745
f 745 777 778
f 745 778 746
f 746 778 779
f 746 779 747
f 747 779 780
f 747 780 748
f 748 780 781
f 748 781 749
f 749 781 782
f 749 782 750
f 750 782 783
f 750 783 751
f 751 783 784
f 751 784 752
f 752 784 785
f 752 785 753
f 753 785 786
f 753 786 754
f 754 786 787
f 754 787 755
f 755 787 788
f 755 788 756
f 756 788 789
f 756 789 757
f 757 789 790
f 757 790 758
f 758 790 791
f 758 791 759
f 759 791 792
f 760 793 761
f 761 794 762
f 762 795 763
f 763 796 764
f 764 797 765
f 765 798 766
f 766 799 767
f 767 800 768
f 768 801 769
f 769 802 770
f 770 803 771
f 771 804 772
f 772 805 773
f 773 806 774
f 774 807 775
f 775 808 776
f 776 809 777
f 777 810 778
f 778 811 779
f 779 812 780
f 780 813 781
f 781 814 782
f 782 815 783
f 783 816 784
f 784 817 785
f 785 818 786
f 786 819 787
f 787 820 788
f 788 821 789
f 789 822 790
f 790 823 791
f 791 824 792
