# Torus
# Major radius 0.35, minor radius 0.15, centered at origin. Analytical SDF: length(vec2(length(p.xz) - 0.35, p.y)) - 0.15
# Generated by generate-test-meshes.mjs
# Vertices: 561, Faces: 1024

v 0.500000 0.000000 0.000000
v 0.488582 0.057403 0.000000
v 0.456066 0.106066 0.000000
v 0.407403 0.138582 0.000000
v 0.350000 0.150000 0.000000
v 0.292597 0.138582 0.000000
v 0.243934 0.106066 0.000000
v 0.211418 0.057403 0.000000
v 0.200000 0.000000 0.000000
v 0.211418 -0.057403 0.000000
v 0.243934 -0.106066 0.000000
v 0.292597 -0.138582 0.000000
v 0.350000 -0.150000 0.000000
v 0.407403 -0.138582 0.000000
v 0.456066 -0.106066 0.000000
v 0.488582 -0.057403 0.000000
v 0.500000 -0.000000 0.000000
v 0.490393 0.000000 0.097545
v 0.479194 0.057403 0.095318
v 0.447303 0.106066 0.088974
v 0.399574 0.138582 0.079480
v 0.343275 0.150000 0.068282
v 0.286975 0.138582 0.057083
v 0.239247 0.106066 0.047589
v 0.207356 0.057403 0.041246
v 0.196157 0.000000 0.039018
v 0.207356 -0.057403 0.041246
v 0.239247 -0.106066 0.047589
v 0.286975 -0.138582 0.057083
v 0.343275 -0.150000 0.068282
v 0.399574 -0.138582 0.079480
v 0.447303 -0.106066 0.088974
v 0.479194 -0.057403 0.095318
v 0.490393 -0.000000 0.097545
v 0.461940 0.000000 0.191342
v 0.451391 0.057403 0.186972
v 0.421350 0.106066 0.174529
v 0.376391 0.138582 0.155906
v 0.323358 0.150000 0.133939
v 0.270325 0.138582 0.111972
v 0.225366 0.106066 0.093349
v 0.195325 0.057403 0.080906
v 0.184776 0.000000 0.076537
v 0.195325 -0.057403 0.080906
v 0.225366 -0.106066 0.093349
v 0.270325 -0.138582 0.111972
v 0.323358 -0.150000 0.133939
v 0.376391 -0.138582 0.155906
v 0.421350 -0.106066 0.174529
v 0.451391 -0.057403 0.186972
v 0.461940 -0.000000 0.191342
v 0.415735 0.000000 0.277785
v 0.406241 0.057403 0.271442
v 0.379205 0.106066 0.253377
v 0.338743 0.138582 0.226341
v 0.291014 0.150000 0.194450
v 0.243286 0.138582 0.162558
v 0.202824 0.106066 0.135522
v 0.175788 0.057403 0.117458
v 0.166294 0.000000 0.111114
v 0.175788 -0.057403 0.117458
v 0.202824 -0.106066 0.135522
v 0.243286 -0.138582 0.162558
v 0.291014 -0.150000 0.194450
v 0.338743 -0.138582 0.226341
v 0.379205 -0.106066 0.253377
v 0.406241 -0.057403 0.271442
v 0.415735 -0.000000 0.277785
v 0.353553 0.000000 0.353553
v 0.345480 0.057403 0.345480
v 0.322487 0.106066 0.322487
v 0.288077 0.138582 0.288077
v 0.247487 0.150000 0.247487
v 0.206898 0.138582 0.206898
v 0.172487 0.106066 0.172487
v 0.149495 0.057403 0.149495
v 0.141421 0.000000 0.141421
v 0.149495 -0.057403 0.149495
v 0.172487 -0.106066 0.172487
v 0.206898 -0.138582 0.206898
v 0.247487 -0.150000 0.247487
v 0.288077 -0.138582 0.288077
v 0.322487 -0.106066 0.322487
v 0.345480 -0.057403 0.345480
v 0.353553 -0.000000 0.353553
v 0.277785 0.000000 0.415735
v 0.271442 0.057403 0.406241
v 0.253377 0.106066 0.379205
v 0.226341 0.138582 0.338743
v 0.194450 0.150000 0.291014
v 0.162558 0.138582 0.243286
v 0.135522 0.106066 0.202824
v 0.117458 0.057403 0.175788
v 0.111114 0.000000 0.166294
v 0.117458 -0.057403 0.175788
v 0.135522 -0.106066 0.202824
v 0.162558 -0.138582 0.243286
v 0.194450 -0.150000 0.291014
v 0.226341 -0.138582 0.338743
v 0.253377 -0.106066 0.379205
v 0.271442 -0.057403 0.406241
v 0.277785 -0.000000 0.415735
v 0.191342 0.000000 0.461940
v 0.186972 0.057403 0.451391
v 0.174529 0.106066 0.421350
v 0.155906 0.138582 0.376391
v 0.133939 0.150000 0.323358
v 0.111972 0.138582 0.270325
v 0.093349 0.106066 0.225366
v 0.080906 0.057403 0.195325
v 0.076537 0.000000 0.184776
v 0.080906 -0.057403 0.195325
v 0.093349 -0.106066 0.225366
v 0.111972 -0.138582 0.270325
v 0.133939 -0.150000 0.323358
v 0.155906 -0.138582 0.376391
v 0.174529 -0.106066 0.421350
v 0.186972 -0.057403 0.451391
v 0.191342 -0.000000 0.461940
v 0.097545 0.000000 0.490393
v 0.095318 0.057403 0.479194
v 0.088974 0.106066 0.447303
v 0.079480 0.138582 0.399574
v 0.068282 0.150000 0.343275
v 0.057083 0.138582 0.286975
v 0.047589 0.106066 0.239247
v 0.041246 0.057403 0.207356
v 0.039018 0.000000 0.196157
v 0.041246 -0.057403 0.207356
v 0.047589 -0.106066 0.239247
v 0.057083 -0.138582 0.286975
v 0.068282 -0.150000 0.343275
v 0.079480 -0.138582 0.399574
v 0.088974 -0.106066 0.447303
v 0.095318 -0.057403 0.479194
v 0.097545 -0.000000 0.490393
v 0.000000 0.000000 0.500000
v 0.000000 0.057403 0.488582
v 0.000000 0.106066 0.456066
v 0.000000 0.138582 0.407403
v 0.000000 0.150000 0.350000
v 0.000000 0.138582 0.292597
v 0.000000 0.106066 0.243934
v 0.000000 0.057403 0.211418
v 0.000000 0.000000 0.200000
v 0.000000 -0.057403 0.211418
v 0.000000 -0.106066 0.243934
v 0.000000 -0.138582 0.292597
v 0.000000 -0.150000 0.350000
v 0.000000 -0.138582 0.407403
v 0.000000 -0.106066 0.456066
v 0.000000 -0.057403 0.488582
v 0.000000 -0.000000 0.500000
v -0.097545 0.000000 0.490393
v -0.095318 0.057403 0.479194
v -0.088974 0.106066 0.447303
v -0.079480 0.138582 0.399574
v -0.068282 0.150000 0.343275
v -0.057083 0.138582 0.286975
v -0.047589 0.106066 0.239247
v -0.041246 0.057403 0.207356
v -0.039018 0.000000 0.196157
v -0.041246 -0.057403 0.207356
v -0.047589 -0.106066 0.239247
v -0.057083 -0.138582 0.286975
v -0.068282 -0.150000 0.343275
v -0.079480 -0.138582 0.399574
v -0.088974 -0.106066 0.447303
v -0.095318 -0.057403 0.479194
v -0.097545 -0.000000 0.490393
v -0.191342 0.000000 0.461940
v -0.186972 0.057403 0.451391
v -0.174529 0.106066 0.421350
v -0.155906 0.138582 0.376391
v -0.133939 0.150000 0.323358
v -0.111972 0.138582 0.270325
v -0.093349 0.106066 0.225366
v -0.080906 0.057403 0.195325
v -0.076537 0.000000 0.184776
v -0.080906 -0.057403 0.195325
v -0.093349 -0.106066 0.225366
v -0.111972 -0.138582 0.270325
v -0.133939 -0.150000 0.323358
v -0.155906 -0.138582 0.376391
v -0.174529 -0.106066 0.421350
v -0.186972 -0.057403 0.451391
v -0.191342 -0.000000 0.461940
v -0.277785 0.000000 0.415735
v -0.271442 0.057403 0.406241
v -0.253377 0.106066 0.379205
v -0.226341 0.138582 0.338743
v -0.194450 0.150000 0.291014
v -0.162558 0.138582 0.243286
v -0.135522 0.106066 0.202824
v -0.117458 0.057403 0.175788
v -0.111114 0.000000 0.166294
v -0.117458 -0.057403 0.175788
v -0.135522 -0.106066 0.202824
v -0.162558 -0.138582 0.243286
v -0.194450 -0.150000 0.291014
v -0.226341 -0.138582 0.338743
v -0.253377 -0.106066 0.379205
v -0.271442 -0.057403 0.406241
v -0.277785 -0.000000 0.415735
v -0.353553 0.000000 0.353553
v -0.345480 0.057403 0.345480
v -0.322487 0.106066 0.322487
v -0.288077 0.138582 0.288077
v -0.247487 0.150000 0.247487
v -0.206898 0.138582 0.206898
v -0.172487 0.106066 0.172487
v -0.149495 0.057403 0.149495
v -0.141421 0.000000 0.141421
v -0.149495 -0.057403 0.149495
v -0.172487 -0.106066 0.172487
v -0.206898 -0.138582 0.206898
v -0.247487 -0.150000 0.247487
v -0.288077 -0.138582 0.288077
v -0.322487 -0.106066 0.322487
v -0.345480 -0.057403 0.345480
v -0.353553 -0.000000 0.353553
v -0.415735 0.000000 0.277785
v -0.406241 0.057403 0.271442
v -0.379205 0.106066 0.253377
v -0.338743 0.138582 0.226341
v -0.291014 0.150000 0.194450
v -0.243286 0.138582 0.162558
v -0.202824 0.106066 0.135522
v -0.175788 0.057403 0.117458
v -0.166294 0.000000 0.111114
v -0.175788 -0.057403 0.117458
v -0.202824 -0.106066 0.135522
v -0.243286 -0.138582 0.162558
v -0.291014 -0.150000 0.194450
v -0.338743 -0.138582 0.226341
v -0.379205 -0.106066 0.253377
v -0.406241 -0.057403 0.271442
v -0.415735 -0.000000 0.277785
v -0.461940 0.000000 0.191342
v -0.451391 0.057403 0.186972
v -0.421350 0.106066 0.174529
v -0.376391 0.138582 0.155906
v -0.323358 0.150000 0.133939
v -0.270325 0.138582 0.111972
v -0.225366 0.106066 0.093349
v -0.195325 0.057403 0.080906
v -0.184776 0.000000 0.076537
v -0.195325 -0.057403 0.080906
v -0.225366 -0.106066 0.093349
v -0.270325 -0.138582 0.111972
v -0.323358 -0.150000 0.133939
v -0.376391 -0.138582 0.155906
v -0.421350 -0.106066 0.174529
v -0.451391 -0.057403 0.186972
v -0.461940 -0.000000 0.191342
v -0.490393 0.000000 0.097545
v -0.479194 0.057403 0.095318
v -0.447303 0.106066 0.088974
v -0.399574 0.138582 0.079480
v -0.343275 0.150000 0.068282
v -0.286975 0.138582 0.057083
v -0.239247 0.106066 0.047589
v -0.207356 0.057403 0.041246
v -0.196157 0.000000 0.039018
v -0.207356 -0.057403 0.041246
v -0.239247 -0.106066 0.047589
v -0.286975 -0.138582 0.057083
v -0.343275 -0.150000 0.068282
v -0.399574 -0.138582 0.079480
v -0.447303 -0.106066 0.088974
v -0.479194 -0.057403 0.095318
v -0.490393 -0.000000 0.097545
v -0.500000 0.000000 0.000000
v -0.488582 0.057403 0.000000
v -0.456066 0.106066 0.000000
v -0.407403 0.138582 0.000000
v -0.350000 0.150000 0.000000
v -0.292597 0.138582 0.000000
v -0.243934 0.106066 0.000000
v -0.211418 0.057403 0.000000
v -0.200000 0.000000 0.000000
v -0.211418 -0.057403 0.000000
v -0.243934 -0.106066 0.000000
v -0.292597 -0.138582 0.000000
v -0.350000 -0.150000 0.000000
v -0.407403 -0.138582 0.000000
v -0.456066 -0.106066 0.000000
v -0.488582 -0.057403 0.000000
v -0.500000 -0.000000 0.000000
v -0.490393 0.000000 -0.097545
v -0.479194 0.057403 -0.095318
v -0.447303 0.106066 -0.088974
v -0.399574 0.138582 -0.079480
v -0.343275 0.150000 -0.068282
v -0.286975 0.138582 -0.057083
v -0.239247 0.106066 -0.047589
v -0.207356 0.057403 -0.041246
v -0.196157 0.000000 -0.039018
v -0.207356 -0.057403 -0.041246
v -0.239247 -0.106066 -0.047589
v -0.286975 -0.138582 -0.057083
v -0.343275 -0.150000 -0.068282
v -0.399574 -0.138582 -0.079480
v -0.447303 -0.106066 -0.088974
v -0.479194 -0.057403 -0.095318
v -0.490393 -0.000000 -0.097545
v -0.461940 0.000000 -0.191342
v -0.451391 0.057403 -0.186972
v -0.421350 0.106066 -0.174529
v -0.376391 0.138582 -0.155906
v -0.323358 0.150000 -0.133939
v -0.270325 0.138582 -0.111972
v -0.225366 0.106066 -0.093349
v -0.195325 0.057403 -0.080906
v -0.184776 0.000000 -0.076537
v -0.195325 -0.057403 -0.080906
v -0.225366 -0.106066 -0.093349
v -0.270325 -0.138582 -0.111972
v -0.323358 -0.150000 -0.133939
v -0.376391 -0.138582 -0.155906
v -0.421350 -0.106066 -0.174529
v -0.451391 -0.057403 -0.186972
v -0.461940 -0.000000 -0.191342
v -0.415735 0.000000 -0.277785
v -0.406241 0.057403 -0.271442
v -0.379205 0.106066 -0.253377
v -0.338743 0.138582 -0.226341
v -0.291014 0.150000 -0.194450
v -0.243286 0.138582 -0.162558
v -0.202824 0.106066 -0.135522
v -0.175788 0.057403 -0.117458
v -0.166294 0.000000 -0.111114
v -0.175788 -0.057403 -0.117458
v -0.202824 -0.106066 -0.135522
v -0.243286 -0.138582 -0.162558
v -0.291014 -0.150000 -0.194450
v -0.338743 -0.138582 -0.226341
v -0.379205 -0.106066 -0.253377
v -0.406241 -0.057403 -0.271442
v -0.415735 -0.000000 -0.277785
v -0.353553 0.000000 -0.353553
v -0.345480 0.057403 -0.345480
v -0.322487 0.106066 -0.322487
v -0.288077 0.138582 -0.288077
v -0.247487 0.150000 -0.247487
v -0.206898 0.138582 -0.206898
v -0.172487 0.106066 -0.172487
v -0.149495 0.057403 -0.149495
v -0.141421 0.000000 -0.141421
v -0.149495 -0.057403 -0.149495
v -0.172487 -0.106066 -0.172487
v -0.206898 -0.138582 -0.206898
v -0.247487 -0.150000 -0.247487
v -0.288077 -0.138582 -0.288077
v -0.322487 -0.106066 -0.322487
v -0.345480 -0.057403 -0.345480
v -0.353553 -0.000000 -0.353553
v -0.277785 0.000000 -0.415735
v -0.271442 0.057403 -0.406241
v -0.253377 0.106066 -0.379205
v -0.226341 0.138582 -0.338743
v -0.194450 0.150000 -0.291014
v -0.162558 0.138582 -0.243286
v -0.135522 0.106066 -0.202824
v -0.117458 0.057403 -0.175788
v -0.111114 0.000000 -0.166294
v -0.117458 -0.057403 -0.175788
v -0.135522 -0.106066 -0.202824
v -0.162558 -0.138582 -0.243286
v -0.194450 -0.150000 -0.291014
v -0.226341 -0.138582 -0.338743
v -0.253377 -0.106066 -0.379205
v -0.271442 -0.057403 -0.406241
v -0.277785 -0.000000 -0.415735
v -0.191342 0.000000 -0.461940
v -0.186972 0.057403 -0.451391
v -0.174529 0.106066 -0.421350
v -0.155906 0.138582 -0.376391
v -0.133939 0.150000 -0.323358
v -0.111972 0.138582 -0.270325
v -0.093349 0.106066 -0.225366
v -0.080906 0.057403 -0.195325
v -0.076537 0.000000 -0.184776
v -0.080906 -0.057403 -0.195325
v -0.093349 -0.106066 -0.225366
v -0.111972 -0.138582 -0.270325
v -0.133939 -0.150000 -0.323358
v -0.155906 -0.138582 -0.376391
v -0.174529 -0.106066 -0.421350
v -0.186972 -0.057403 -0.451391
v -0.191342 -0.000000 -0.461940
v -0.097545 0.000000 -0.490393
v -0.095318 0.057403 -0.479194
v -0.088974 0.106066 -0.447303
v -0.079480 0.138582 -0.399574
v -0.068282 0.150000 -0.343275
v -0.057083 0.138582 -0.286975
v -0.047589 0.106066 -0.239247
v -0.041246 0.057403 -0.207356
v -0.039018 0.000000 -0.196157
v -0.041246 -0.057403 -0.207356
v -0.047589 -0.106066 -0.239247
v -0.057083 -0.138582 -0.286975
v -0.068282 -0.150000 -0.343275
v -0.079480 -0.138582 -0.399574
v -0.088974 -0.106066 -0.447303
v -0.095318 -0.057403 -0.479194
v -0.097545 -0.000000 -0.490393
v -0.000000 0.000000 -0.500000
v -0.000000 0.057403 -0.488582
v -0.000000 0.106066 -0.456066
v -0.000000 0.138582 -0.407403
v -0.000000 0.150000 -0.350000
v -0.000000 0.138582 -0.292597
v -0.000000 0.106066 -0.243934
v -0.000000 0.057403 -0.211418
v -0.000000 0.000000 -0.200000
v -0.000000 -0.057403 -0.211418
v -0.000000 -0.106066 -0.243934
v -0.000000 -0.138582 -0.292597
v -0.000000 -0.150000 -0.350000
v -0.000000 -0.138582 -0.407403
v -0.000000 -0.106066 -0.456066
v -0.000000 -0.057403 -0.488582
v -0.000000 -0.000000 -0.500000
v 0.097545 0.000000 -0.490393
v 0.095318 0.057403 -0.479194
v 0.088974 0.106066 -0.447303
v 0.079480 0.138582 -0.399574
v 0.068282 0.150000 -0.343275
v 0.057083 0.138582 -0.286975
v 0.047589 0.106066 -0.239247
v 0.041246 0.057403 -0.207356
v 0.039018 0.000000 -0.196157
v 0.041246 -0.057403 -0.207356
v 0.047589 -0.106066 -0.239247
v 0.057083 -0.138582 -0.286975
v 0.068282 -0.150000 -0.343275
v 0.079480 -0.138582 -0.399574
v 0.088974 -0.106066 -0.447303
v 0.095318 -0.057403 -0.479194
v 0.097545 -0.000000 -0.490393
v 0.191342 0.000000 -0.461940
v 0.186972 0.057403 -0.451391
v 0.174529 0.106066 -0.421350
v 0.155906 0.138582 -0.376391
v 0.133939 0.150000 -0.323358
v 0.111972 0.138582 -0.270325
v 0.093349 0.106066 -0.225366
v 0.080906 0.057403 -0.195325
v 0.076537 0.000000 -0.184776
v 0.080906 -0.057403 -0.195325
v 0.093349 -0.106066 -0.225366
v 0.111972 -0.138582 -0.270325
v 0.133939 -0.150000 -0.323358
v 0.155906 -0.138582 -0.376391
v 0.174529 -0.106066 -0.421350
v 0.186972 -0.057403 -0.451391
v 0.191342 -0.000000 -0.461940
v 0.277785 0.000000 -0.415735
v 0.271442 0.057403 -0.406241
v 0.253377 0.106066 -0.379205
v 0.226341 0.138582 -0.338743
v 0.194450 0.150000 -0.291014
v 0.162558 0.138582 -0.243286
v 0.135522 0.106066 -0.202824
v 0.117458 0.057403 -0.175788
v 0.111114 0.000000 -0.166294
v 0.117458 -0.057403 -0.175788
v 0.135522 -0.106066 -0.202824
v 0.162558 -0.138582 -0.243286
v 0.194450 -0.150000 -0.291014
v 0.226341 -0.138582 -0.338743
v 0.253377 -0.106066 -0.379205
v 0.271442 -0.057403 -0.406241
v 0.277785 -0.000000 -0.415735
v 0.353553 0.000000 -0.353553
v 0.345480 0.057403 -0.345480
v 0.322487 0.106066 -0.322487
v 0.288077 0.138582 -0.288077
v 0.247487 0.150000 -0.247487
v 0.206898 0.138582 -0.206898
v 0.172487 0.106066 -0.172487
v 0.149495 0.057403 -0.149495
v 0.141421 0.000000 -0.141421
v 0.149495 -0.057403 -0.149495
v 0.172487 -0.106066 -0.172487
v 0.206898 -0.138582 -0.206898
v 0.247487 -0.150000 -0.247487
v 0.288077 -0.138582 -0.288077
v 0.322487 -0.106066 -0.322487
v 0.345480 -0.057403 -0.345480
v 0.353553 -0.000000 -0.353553
v 0.415735 0.000000 -0.277785
v 0.406241 0.057403 -0.271442
v 0.379205 0.106066 -0.253377
v 0.338743 0.138582 -0.226341
v 0.291014 0.150000 -0.194450
v 0.243286 0.138582 -0.162558
v 0.202824 0.106066 -0.135522
v 0.175788 0.057403 -0.117458
v 0.166294 0.000000 -0.111114
v 0.175788 -0.057403 -0.117458
v 0.202824 -0.106066 -0.135522
v 0.243286 -0.138582 -0.162558
v 0.291014 -0.150000 -0.194450
v 0.338743 -0.138582 -0.226341
v 0.379205 -0.106066 -0.253377
v 0.406241 -0.057403 -0.271442
v 0.415735 -0.000000 -0.277785
v 0.461940 0.000000 -0.191342
v 0.451391 0.057403 -0.186972
v 0.421350 0.106066 -0.174529
v 0.376391 0.138582 -0.155906
v 0.323358 0.150000 -0.133939
v 0.270325 0.138582 -0.111972
v 0.225366 0.106066 -0.093349
v 0.195325 0.057403 -0.080906
v 0.184776 0.000000 -0.076537
v 0.195325 -0.057403 -0.080906
v 0.225366 -0.106066 -0.093349
v 0.270325 -0.138582 -0.111972
v 0.323358 -0.150000 -0.133939
v 0.376391 -0.138582 -0.155906
v 0.421350 -0.106066 -0.174529
v 0.451391 -0.057403 -0.186972
v 0.461940 -0.000000 -0.191342
v 0.490393 0.000000 -0.097545
v 0.479194 0.057403 -0.095318
v 0.447303 0.106066 -0.088974
v 0.399574 0.138582 -0.079480
v 0.343275 0.150000 -0.068282
v 0.286975 0.138582 -0.057083
v 0.239247 0.106066 -0.047589
v 0.207356 0.057403 -0.041246
v 0.196157 0.000000 -0.039018
v 0.207356 -0.057403 -0.041246
v 0.239247 -0.106066 -0.047589
v 0.286975 -0.138582 -0.057083
v 0.343275 -0.150000 -0.068282
v 0.399574 -0.138582 -0.079480
v 0.447303 -0.106066 -0.088974
v 0.479194 -0.057403 -0.095318
v 0.490393 -0.000000 -0.097545
v 0.500000 0.000000 -0.000000
v 0.488582 0.057403 -0.000000
v 0.456066 0.106066 -0.000000
v 0.407403 0.138582 -0.000000
v 0.350000 0.150000 -0.000000
v 0.292597 0.138582 -0.000000
v 0.243934 0.106066 -0.000000
v 0.211418 0.057403 -0.000000
v 0.200000 0.000000 -0.000000
v 0.211418 -0.057403 -0.000000
v 0.243934 -0.106066 -0.000000
v 0.292597 -0.138582 -0.000000
v 0.350000 -0.150000 -0.000000
v 0.407403 -0.138582 -0.000000
v 0.456066 -0.106066 -0.000000
v 0.488582 -0.057403 -0.000000
v 0.500000 -0.000000 -0.000000

f 1 18 19
f 1 19 2
f 2 19 20
f 2 20 3
f 3 20 21
f 3 21 4
f 4 21 22
f 4 22 5
f 5 22 23
f 5 23 6
f 6 23 24
f 6 24 7
f 7 24 25
f 7 25 8
f 8 25 26
f 8 26 9
f 9 26 27
f 9 27 10
f 10 27 28
f 10 28 11
f 11 28 29
f 11 29 12
f 12 29 30
f 12 30 13
f 13 30 31
f 13 31 14
f 14 31 32
f 14 32 15
f 15 32 33
f 15 33 16
f 16 33 34
f 16 34 17
f 18 35 36
f 18 36 19
f 19 36 37
f 19 37 20
f 20 37 38
f 20 38 21
f 21 38 39
f 21 39 22
f 22 39 40
f 22 40 23
f 23 40 41
f 23 41 24
f 24 41 42
f 24 42 25
f 25 42 43
f 25 43 26
f 26 43 44
f 26 44 27
f 27 44 45
f 27 45 28
f 28 45 46
f 28 46 29
f 29 46 47
f 29 47 30
f 30 47 48
f 30 48 31
f 31 48 49
f 31 49 32
f 32 49 50
f 32 50 33
f 33 50 51
f 33 51 34
f 35 52 53
f 35 53 36
f 36 53 54
f 36 54 37
f 37 54 55
f 37 55 38
f 38 55 56
f 38 56 39
f 39 56 57
f 39 57 40
f 40 57 58
f 40 58 41
f 41 58 59
f 41 59 42
f 42 59 60
f 42 60 43
f 43 60 61
f 43 61 44
f 44 61 62
f 44 62 45
f 45 62 63
f 45 63 46
f 46 63 64
f 46 64 47
f 47 64 65
f 47 65 48
f 48 65 66
f 48 66 49
f 49 66 67
f 49 67 50
f 50 67 68
f 50 68 51
f 52 69 70
f 52 70 53
f 53 70 71
f 53 71 54
f 54 71 72
f 54 72 55
f 55 72 73
f 55 73 56
f 56 73 74
f 56 74 57
f 57 74 75
f 57 75 58
f 58 75 76
f 58 76 59
f 59 76 77
f 59 77 60
f 60 77 78
f 60 78 61
f 61 78 79
f 61 79 62
f 62 79 80
f 62 80 63
f 63 80 81
f 63 81 64
f 64 81 82
f 64 82 65
f 65 82 83
f 65 83 66
f 66 83 84
f 66 84 67
f 67 84 85
f 67 85 68
f 69 86 87
f 69 87 70
f 70 87 88
f 70 88 71
f 71 88 89
f 71 89 72
f 72 89 90
f 72 90 73
f 73 90 91
f 73 91 74
f 74 91 92
f 74 92 75
f 75 92 93
f 75 93 76
f 76 93 94
f 76 94 77
f 77 94 95
f 77 95 78
f 78 95 96
f 78 96 79
f 79 96 97
f 79 97 80
f 80 97 98
f 80 98 81
f 81 98 99
f 81 99 82
f 82 99 100
f 82 100 83
f 83 100 101
f 83 101 84
f 84 101 102
f 84 102 85
f 86 103 104
f 86 104 87
f 87 104 105
f 87 105 88
f 88 105 106
f 88 106 89
f 89 106 107
f 89 107 90
f 90 107 108
f 90 108 91
f 91 108 109
f 91 109 92
f 92 109 110
f 92 110 93
f 93 110 111
f 93 111 94
f 94 111 112
f 94 112 95
f 95 112 113
f 95 113 96
f 96 113 114
f 96 114 97
f 97 114 115
f 97 115 98
f 98 115 116
f 98 116 99
f 99 116 117
f 99 117 100
f 100 117 118
f 100 118 101
f 101 118 119
f 101 119 102
f 103 120 121
f 103 121 104
f 104 121 122
f 104 122 105
f 105 122 123
f 105 123 106
f 106 123 124
f 106 124 107
f 107 124 125
f 107 125 108
f 108 125 126
f 108 126 109
f 109 126 127
f 109 127 110
f 110 127 128
f 110 128 111
f 111 128 129
f 111 129 112
f 112 129 130
f 112 130 113
f 113 130 131
f 113 131 114
f 114 131 132
f 114 132 115
f 115 132 133
f 115 133 116
f 116 133 134
f 116 134 117
f 117 134 135
f 117 135 118
f 118 135 136
f 118 136 119
f 120 137 138
f 120 138 121
f 121 138 139
f 121 139 122
f 122 139 140
f 122 140 123
f 123 140 141
f 123 141 124
f 124 141 142
f 124 142 125
f 125 142 143
f 125 143 126
f 126 143 144
f 126 144 127
f 127 144 145
f 127 145 128
f 128 145 146
f 128 146 129
f 129 146 147
f 129 147 130
f 130 147 148
f 130 148 131
f 131 148 149
f 131 149 132
f 132 149 150
f 132 150 133
f 133 150 151
f 133 151 134
f 134 151 152
f 134 152 135
f 135 152 153
f 135 153 136
f 137 154 155
f 137 155 138
f 138 155 156
f 138 156 139
f 139 156 157
f 139 157 140
f 140 157 158
f 140 158 141
f 141 158 159
f 141 159 142
f 142 159 160
f 142 160 143
f 143 160 161
f 143 161 144
f 144 161 162
f 144 162 145
f 145 162 163
f 145 163 146
f 146 163 164
f 146 164 147
f 147 164 165
f 147 165 148
f 148 165 166
f 148 166 149
f 149 166 167
f 149 167 150
f 150 167 168
f 150 168 151
f 151 168 169
f 151 169 152
f 152 169 170
f 152 170 153
f 154 171 172
f 154 172 155
f 155 172 173
f 155 173 156
f 156 173 174
f 156 174 157
f 157 174 175
f 157 175 158
f 158 175 176
f 158 176 159
f 159 176 177
f 159 177 160
f 160 177 178
f 160 178 161
f 161 178 179
f 161 179 162
f 162 179 180
f 162 180 163
f 163 180 181
f 163 181 164
f 164 181 182
f 164 182 165
f 165 182 183
f 165 183 166
f 166 183 184
f 166 184 167
f 167 184 185
f 167 185 168
f 168 185 186
f 168 186 169
f 169 186 187
f 169 187 170
f 171 188 189
f 171 189 172
f 172 189 190
f 172 190 173
f 173 190 191
f 173 191 174
f 174 191 192
f 174 192 175
f 175 192 193
f 175 193 176
f 176 193 194
f 176 194 177
f 177 194 195
f 177 195 178
f 178 195 196
f 178 196 179
f 179 196 197
f 179 197 180
f 180 197 198
f 180 198 181
f 181 198 199
f 181 199 182
f 182 199 200
f 182 200 183
f 183 200 201
f 183 201 184
f 184 201 202
f 184 202 185
f 185 202 203
f 185 203 186
f 186 203 204
f 186 204 187
f 188 205 206
f 188 206 189
f 189 206 207
f 189 207 190
f 190 207 208
f 190 208 191
f 191 208 209
f 191 209 192
f 192 209 210
f 192 210 193
f 193 210 211
f 193 211 194
f 194 211 212
f 194 212 195
f 195 212 213
f 195 213 196
f 196 213 214
f 196 214 197
f 197 214 215
f 197 215 198
f 198 215 216
f 198 216 199
f 199 216 217
f 199 217 200
f 200 217 218
f 200 218 201
f 201 218 219
f 201 219 202
f 202 219 220
f 202 220 203
f 203 220 221
f 203 221 204
f 205 222 223
f 205 223 206
f 206 223 224
f 206 224 207
f 207 224 225
f 207 225 208
f 208 225 226
f 208 226 209
f 209 226 227
f 209 227 210
f 210 227 228
f 210 228 211
f 211 228 229
f 211 229 212
f 212 229 230
f 212 230 213
f 213 230 231
f 213 231 214
f 214 231 232
f 214 232 215
f 215 232 233
f 215 233 216
f 216 233 234
f 216 234 217
f 217 234 235
f 217 235 218
f 218 235 236
f 218 236 219
f 219 236 237
f 219 237 220
f 220 237 238
f 220 238 221
f 222 239 240
f 222 240 223
f 223 240 241
f 223 241 224
f 224 241 242
f 224 242 225
f 225 242 243
f 225 243 226
f 226 243 244
f 226 244 227
f 227 244 245
f 227 245 228
f 228 245 246
f 228 246 229
f 229 246 247
f 229 247 230
f 230 247 248
f 230 248 231
f 231 248 249
f 231 249 232
f 232 249 250
f 232 250 233
f 233 250 251
f 233 251 234
f 234 251 252
f 234 252 235
f 235 252 253
f 235 253 236
f 236 253 254
f 236 254 237
f 237 254 255
f 237 255 238
f 239 256 257
f 239 257 240
f 240 257 258
f 240 258 241
f 241 258 259
f 241 259 242
f 242 259 260
f 242 260 243
f 243 260 261
f 243 261 244
f 244 261 262
f 244 262 245
f 245 262 263
f 245 263 246
f 246 263 264
f 246 264 247
f 247 264 265
f 247 265 248
f 248 265 266
f 248 266 249
f 249 266 267
f 249 267 250
f 250 267 268
f 250 268 251
f 251 268 269
f 251 269 252
f 252 269 270
f 252 270 253
f 253 270 271
f 253 271 254
f 254 271 272
f 254 272 255
f 256 273 274
f 256 274 257
f 257 274 275
f 257 275 258
f 258 275 276
f 258 276 259
f 259 276 277
f 259 277 260
f 260 277 278
f 260 278 261
f 261 278 279
f 261 279 262
f 262 279 280
f 262 280 263
f 263 280 281
f 263 281 264
f 264 281 282
f 264 282 265
f 265 282 283
f 265 283 266
f 266 283 284
f 266 284 267
f 267 284 285
f 267 285 268
f 268 285 286
f 268 286 269
f 269 286 287
f 269 287 270
f 270 287 288
f 270 288 271
f 271 288 289
f 271 289 272
f 273 290 291
f 273 291 274
f 274 291 292
f 274 292 275
f 275 292 293
f 275 293 276
f 276 293 294
f 276 294 277
f 277 294 295
f 277 295 278
f 278 295 296
f 278 296 279
f 279 296 297
f 279 297 280
f 280 297 298
f 280 298 281
f 281 298 299
f 281 299 282
f 282 299 300
f 282 300 283
f 283 300 301
f 283 301 284
f 284 301 302
f 284 302 285
f 285 302 303
f 285 303 286
f 286 303 304
f 286 304 287
f 287 304 305
f 287 305 288
f 288 305 306
f 288 306 289
f 290 307 308
f 290 308 291
f 291 308 309
f 291 309 292
f 292 309 310
f 292 310 293
f 293 310 311
f 293 311 294
f 294 311 312
f 294 312 295
f 295 312 313
f 295 313 296
f 296 313 314
f 296 314 297
f 297 314 315
f 297 315 298
f 298 315 316
f 298 316 299
f 299 316 317
f 299 317 300
f 300 317 318
f 300 318 301
f 301 318 319
f 301 319 302
f 302 319 320
f 302 320 303
f 303 320 321
f 303 321 304
f 304 321 322
f 304 322 305
f 305 322 323
f 305 323 306
f 307 324 325
f 307 325 308
f 308 325 326
f 308 326 309
f 309 326 327
f 309 327 310
f 310 327 328
f 310 328 311
f 311 328 329
f 311 329 312
f 312 329 330
f 312 330 313
f 313 330 331
f 313 331 314
f 314 331 332
f 314 332 315
f 315 332 333
f 315 333 316
f 316 333 334
f 316 334 317
f 317 334 335
f 317 335 318
f 318 335 336
f 318 336 319
f 319 336 337
f 319 337 320
f 320 337 338
f 320 338 321
f 321 338 339
f 321 339 322
f 322 339 340
f 322 340 323
f 324 341 342
f 324 342 325
f 325 342 343
f 325 343 326
f 326 343 344
f 326 344 327
f 327 344 345
f 327 345 328
f 328 345 346
f 328 346 329
f 329 346 347
f 329 347 330
f 330 347 348
f 330 348 331
f 331 348 349
f 331 349 332
f 332 349 350
f 332 350 333
f 333 350 351
f 333 351 334
f 334 351 352
f 334 352 335
f 335 352 353
f 335 353 336
f 336 353 354
f 336 354 337
f 337 354 355
f 337 355 338
f 338 355 356
f 338 356 339
f 339 356 357
f 339 357 340
f 341 358 359
f 341 359 342
f 342 359 360
f 342 360 343
f 343 360 361
f 343 361 344
f 344 361 362
f 344 362 345
f 345 362 363
f 345 363 346
f 346 363 364
f 346 364 347
f 347 364 365
f 347 365 348
f 348 365 366
f 348 366 349
f 349 366 367
f 349 367 350
f 350 367 368
f 350 368 351
f 351 368 369
f 351 369 352
f 352 369 370
f 352 370 353
f 353 370 371
f 353 371 354
f 354 371 372
f 354 372 355
f 355 372 373
f 355 373 356
f 356 373 374
f 356 374 357
f 358 375 376
f 358 376 359
f 359 376 377
f 359 377 360
f 360 377 378
f 360 378 361
f 361 378 379
f 361 379 362
f 362 379 380
f 362 380 363
f 363 380 381
f 363 381 364
f 364 381 382
f 364 382 365
f 365 382 383
f 365 383 366
f 366 383 384
f 366 384 367
f 367 384 385
f 367 385 368
f 368 385 386
f 368 386 369
f 369 386 387
f 369 387 370
f 370 387 388
f 370 388 371
f 371 388 389
f 371 389 372
f 372 389 390
f 372 390 373
f 373 390 391
f 373 391 374
f 375 392 393
f 375 393 376
f 376 393 394
f 376 394 377
f 377 394 395
f 377 395 378
f 378 395 396
f 378 396 379
f 379 396 397
f 379 397 380
f 380 397 398
f 380 398 381
f 381 398 399
f 381 399 382
f 382 399 400
f 382 400 383
f 383 400 401
f 383 401 384
f 384 401 402
f 384 402 385
f 385 402 403
f 385 403 386
f 386 403 404
f 386 404 387
f 387 404 405
f 387 405 388
f 388 405 406
f 388 406 389
f 389 406 407
f 389 407 390
f 390 407 408
f 390 408 391
f 392 409 410
f 392 410 393
f 393 410 411
f 393 411 394
f 394 411 412
f 394 412 395
f 395 412 413
f 395 413 396
f 396 413 414
f 396 414 397
f 397 414 415
f 397 415 398
f 398 415 416
f 398 416 399
f 399 416 417
f 399 417 400
f 400 417 418
f 400 418 401
f 401 418 419
f 401 419 402
f 402 419 420
f 402 420 403
f 403 420 421
f 403 421 404
f 404 421 422
f 404 422 405
f 405 422 423
f 405 423 406
f 406 423 424
f 406 424 407
f 407 424 425
f 407 425 408
f 409 426 427
f 409 427 410
f 410 427 428
f 410 428 411
f 411 428 429
f 411 429 412
f 412 429 430
f 412 430 413
f 413 430 431
f 413 431 414
f 414 431 432
f 414 432 415
f 415 432 433
f 415 433 416
f 416 433 434
f 416 434 417
f 417 434 435
f 417 435 418
f 418 435 436
f 418 436 419
f 419 436 437
f 419 437 420
f 420 437 438
f 420 438 421
f 421 438 439
f 421 439 422
f 422 439 440
f 422 440 423
f 423 440 441
f 423 441 424
f 424 441 442
f 424 442 425
f 426 443 444
f 426 444 427
f 427 444 445
f 427 445 428
f 428 445 446
f 428 446 429
f 429 446 447
f 429 447 430
f 430 447 448
f 430 448 431
f 431 448 449
f 431 449 432
f 432 449 450
f 432 450 433
f 433 450 451
f 433 451 434
f 434 451 452
f 434 452 435
f 435 452 453
f 435 453 436
f 436 453 454
f 436 454 437
f 437 454 455
f 437 455 438
f 438 455 456
f 438 456 439
f 439 456 457
f 439 457 440
f 440 457 458
f 440 458 441
f 441 458 459
f 441 459 442
f 443 460 461
f 443 461 444
f 444 461 462
f 444 462 445
f 445 462 463
f 445 463 446
f 446 463 464
f 446 464 447
f 447 464 465
f 447 465 448
f 448 465 466
f 448 466 449
f 449 466 467
f 449 467 450
f 450 467 468
f 450 468 451
f 451 468 469
f 451 469 452
f 452 469 470
f 452 470 453
f 453 470 471
f 453 471 454
f 454 471 472
f 454 472 455
f 455 472 473
f 455 473 456
f 456 473 474
f 456 474 457
f 457 474 475
f 457 475 458
f 458 475 476
f 458 476 459
f 460 477 478
f 460 478 461
f 461 478 479
f 461 479 462
f 462 479 480
f 462 480 463
f 463 480 481
f 463 481 464
f 464 481 482
f 464 482 465
f 465 482 483
f 465 483 466
f 466 483 484
f 466 484 467
f 467 484 485
f 467 485 468
f 468 485 486
f 468 486 469
f 469 486 487
f 469 487 470
f 470 487 488
f 470 488 471
f 471 488 489
f 471 489 472
f 472 489 490
f 472 490 473
f 473 490 491
f 473 491 474
f 474 491 492
f 474 492 475
f 475 492 493
f 475 493 476
f 477 494 495
f 477 495 478
f 478 495 496
f 478 496 479
f 479 496 497
f 479 497 480
f 480 497 498
f 480 498 481
f 481 498 499
f 481 499 482
f 482 499 500
f 482 500 483
f 483 500 501
f 483 501 484
f 484 501 502
f 484 502 485
f 485 502 503
f 485 503 486
f 486 503 504
f 486 504 487
f 487 504 505
f 487 505 488
f 488 505 506
f 488 506 489
f 489 506 507
f 489 507 490
f 490 507 508
f 490 508 491
f 491 508 509
f 491 509 492
f 492 509 510
f 492 510 493
f 494 511 512
f 494 512 495
f 495 512 513
f 495 513 496
f 496 513 514
f 496 514 497
f 497 514 515
f 497 515 498
f 498 515 516
f 498 516 499
f 499 516 517
f 499 517 500
f 500 517 518
f 500 518 501
f 501 518 519
f 501 519 502
f 502 519 520
f 502 520 503
f 503 520 521
f 503 521 504
f 504 521 522
f 504 522 505
f 505 522 523
f 505 523 506
f 506 523 524
f 506 524 507
f 507 524 525
f 507 525 508
f 508 525 526
f 508 526 509
f 509 526 527
f 509 527 510
f 511 528 529
f 511 529 512
f 512 529 530
f 512 530 513
f 513 530 531
f 513 531 514
f 514 531 532
f 514 532 515
f 515 532 533
f 515 533 516
f 516 533 534
f 516 534 517
f 517 534 535
f 517 535 518
f 518 535 536
f 518 536 519
f 519 536 537
f 519 537 520
f 520 537 538
f 520 538 521
f 521 538 539
f 521 539 522
f 522 539 540
f 522 540 523
f 523 540 541
f 523 541 524
f 524 541 542
f 524 542 525
f 525 542 543
f 525 543 526
f 526 543 544
f 526 544 527
f 528 545 546
f 528 546 529
f 529 546 547
f 529 547 530
f 530 547 548
f 530 548 531
f 531 548 549
f 531 549 532
f 532 549 550
f 532 550 533
f 533 550 551
f 533 551 534
f 534 551 552
f 534 552 535
f 535 552 553
f 535 553 536
f 536 553 554
f 536 554 537
f 537 554 555
f 537 555 538
f 538 555 556
f 538 556 539
f 539 556 557
f 539 557 540
f 540 557 558
f 540 558 541
f 541 558 559
f 541 559 542
f 542 559 560
f 542 560 543
f 543 560 561
f 543 561 544
